<svg width="205" height="211" viewBox="0 0 205 211" fill="none" xmlns="http://www.w3.org/2000/svg">
<path d="M122.146 57.8245C105.531 69.1931 89.9595 62.5614 84.2509 57.8245C34.695 66.934 75.87 167.139 103.563 210.5C160.771 109.567 148.017 57.8245 122.146 57.8245Z" fill="#6B21A8" stroke="#6B21A8" stroke-linejoin="round"/>
<path d="M87.1659 198.84C62.0966 159.779 51.4564 100.457 54.736 80.4163H47.4484C41.6183 95.5744 26.3142 95.7203 19.391 93.8984C-12.383 117.802 51.4566 176.613 87.1659 198.84Z" fill="#6B21A8" stroke="#6B21A8" stroke-linejoin="round"/>
<path d="M119.315 198.84C144.384 159.779 155.025 100.457 151.745 80.4163H159.033C164.863 95.5744 180.167 95.7203 187.09 93.8984C218.864 117.802 155.024 176.613 119.315 198.84Z" fill="#6B21A8" stroke="#6B21A8" stroke-linejoin="round"/>
<circle cx="102.813" cy="28.4969" r="28.3258" fill="#6B21A8"/>
<circle cx="181.574" cy="65.8754" r="23.0695" fill="#6B21A8"/>
<circle cx="24.0524" cy="65.8754" r="23.0695" fill="#6B21A8"/>
</svg>
