<svg width="2736" height="344" viewBox="0 0 2736 344" fill="none" xmlns="http://www.w3.org/2000/svg">
    <path d="M89.98 257.2C46.2 257.2 9.9 225.08 9.9 176.9C9.9 128.72 46.2 96.6 89.98 96.6C110.22 96.6 135.52 103.42 152.02 128.94L133.98 141.7C122.54 125.86 105.82 120.36 90.64 120.36C60.06 120.36 35.42 142.58 35.42 176.9C35.42 211.44 60.28 233.44 90.86 233.44C106.26 233.44 122.54 227.94 133.98 212.1L152.02 224.86C135.52 250.38 110.22 257.2 89.98 257.2ZM171.729 255V140.6H195.929V170.08C199.889 152.92 211.329 138.4 232.229 138.4C234.869 138.4 237.069 138.62 239.489 139.28V162.38C237.069 161.94 235.089 161.72 232.449 161.72C210.669 161.72 195.929 177.56 195.929 201.54V255H171.729ZM308.339 257.2C277.319 257.2 249.159 235.86 249.159 197.8C249.159 159.3 277.539 138.4 306.579 138.4C335.619 138.4 367.299 159.08 361.799 207.04H272.039C275.779 226.84 291.399 236.96 310.979 236.96C323.299 236.96 334.299 233 342.659 225.08L354.099 236.96C344.199 249.28 327.699 257.2 308.339 257.2ZM271.819 189H340.239C338.919 169.2 323.079 159.08 306.799 159.08C290.739 159.08 275.339 168.76 271.819 189ZM431.142 257.2C404.082 257.2 375.702 237.18 375.702 197.8C375.702 158.42 404.082 138.4 431.142 138.4C452.042 138.4 466.562 149.84 470.742 158.86H471.402V140.6H495.602V255H471.402V236.74H470.742C466.562 245.76 452.042 257.2 431.142 257.2ZM399.682 197.8C399.682 222.44 417.502 235.2 435.762 235.2C454.242 235.2 472.062 222.44 472.062 197.8C472.062 173.16 454.242 160.4 435.762 160.4C417.502 160.4 399.682 173.16 399.682 197.8ZM559.816 256.32C542.436 256.32 530.116 247.74 530.116 227.28V160.18H514.276V140.6H530.116V111.34H554.536V140.6H577.636V160.18H554.536V222.88C554.536 229.48 558.056 234.54 567.076 234.54C569.716 234.54 573.456 234.1 577.636 232.56V251.7C573.456 255.22 565.976 256.32 559.816 256.32ZM649.94 257.2C618.92 257.2 590.76 235.86 590.76 197.8C590.76 159.3 619.14 138.4 648.18 138.4C677.22 138.4 708.9 159.08 703.4 207.04H613.64C617.38 226.84 633 236.96 652.58 236.96C664.9 236.96 675.9 233 684.26 225.08L695.7 236.96C685.8 249.28 669.3 257.2 649.94 257.2ZM613.42 189H681.84C680.52 169.2 664.68 159.08 648.4 159.08C632.34 159.08 616.94 168.76 613.42 189ZM837.203 255H813.003V236.74H812.343C808.163 245.76 793.643 257.2 772.743 257.2C745.683 257.2 717.303 237.18 717.303 197.8C717.303 158.42 745.683 138.4 772.743 138.4C793.643 138.4 808.163 149.84 812.343 158.86H813.003V98.8H837.203V255ZM741.283 197.8C741.283 222.44 759.103 235.2 777.363 235.2C795.843 235.2 813.663 222.44 813.663 197.8C813.663 173.16 795.843 160.4 777.363 160.4C759.103 160.4 741.283 173.16 741.283 197.8ZM907.569 98.8H931.769V158.86H932.429C936.609 149.84 951.129 138.4 972.029 138.4C999.089 138.4 1027.47 158.42 1027.47 197.8C1027.47 237.18 999.089 257.2 972.029 257.2C951.129 257.2 936.609 245.76 932.429 236.74H931.769V255H907.569V98.8ZM931.109 197.8C931.109 222.44 948.929 235.2 967.409 235.2C985.669 235.2 1003.49 222.44 1003.49 197.8C1003.49 173.16 985.669 160.4 967.409 160.4C948.929 160.4 931.109 173.16 931.109 197.8ZM1058.45 296.8L1077.37 254.12L1029.63 140.6H1054.49L1089.25 225.74L1123.79 140.6H1148.87L1100.47 255L1082.43 296.8H1058.45Z" fill="#222222"/>
    <path d="M1538.1 98.8H1562.3V158.86H1562.96C1567.14 149.84 1581.66 138.4 1602.56 138.4C1629.62 138.4 1658 158.42 1658 197.8C1658 237.18 1629.62 257.2 1602.56 257.2C1581.66 257.2 1567.14 245.76 1562.96 236.74H1562.3V255H1538.1V98.8ZM1561.64 197.8C1561.64 222.44 1579.46 235.2 1597.94 235.2C1616.2 235.2 1634.02 222.44 1634.02 197.8C1634.02 173.16 1616.2 160.4 1597.94 160.4C1579.46 160.4 1561.64 173.16 1561.64 197.8ZM1676.67 255V140.6H1700.87V255H1676.67ZM1676.67 120.58V98.8H1700.87V120.58H1676.67ZM1765.05 256.32C1747.67 256.32 1735.35 247.74 1735.35 227.28V160.18H1719.51V140.6H1735.35V111.34H1759.77V140.6H1782.87V160.18H1759.77V222.88C1759.77 229.48 1763.29 234.54 1772.31 234.54C1774.95 234.54 1778.69 234.1 1782.87 232.56V251.7C1778.69 255.22 1771.21 256.32 1765.05 256.32ZM1837.77 257.2C1815.77 257.2 1799.71 245.98 1796.19 225.74L1815.99 220.24C1818.41 229.92 1825.67 237.62 1837.55 237.62C1846.57 237.62 1855.37 233 1855.37 222.88C1855.37 215.62 1850.53 211.22 1839.53 206.82L1827.21 202.2C1808.29 194.94 1800.37 183.28 1800.37 169.86C1800.37 150.5 1817.31 138.4 1837.99 138.4C1857.57 138.4 1871.87 149.18 1875.83 165.9L1856.69 170.96C1853.39 161.72 1847.01 157.76 1839.09 157.76C1830.29 157.76 1824.13 162.6 1824.13 170.08C1824.13 176.02 1827.87 181.08 1838.21 184.82L1849.43 189.22C1865.27 195.16 1879.57 203.3 1879.57 222.88C1879.57 245.76 1860.21 257.2 1837.77 257.2ZM1998.71 257.2C1969.01 257.2 1938.87 236.3 1938.87 197.8C1938.87 159.3 1969.01 138.4 1998.71 138.4C2028.41 138.4 2058.55 159.3 2058.55 197.8C2058.55 236.3 2028.41 257.2 1998.71 257.2ZM1962.85 197.8C1962.85 221.34 1980.01 234.98 1998.71 234.98C2017.41 234.98 2034.35 221.34 2034.35 197.8C2034.35 174.26 2017.41 160.62 1998.71 160.62C1980.01 160.62 1962.85 174.26 1962.85 197.8ZM2083.3 130.7C2083.3 99.9 2104.42 94.18 2118.94 94.18C2125.1 94.18 2132.58 95.28 2138.08 98.58V117.72C2133.02 115.3 2127.74 114.86 2124.88 114.86C2113.88 114.86 2107.72 120.8 2107.72 133.56V140.6H2138.08V160.18H2107.72V255H2083.3V160.18H2069.44V140.6H2083.3V130.7ZM2260.63 300.76C2246.33 300.76 2233.35 297.46 2227.19 293.28V273.26C2232.47 276.78 2243.69 280.3 2256.45 280.3C2278.67 280.3 2295.39 270.18 2295.39 248.62V236.74H2294.07C2290.11 245.76 2275.81 257.2 2255.13 257.2C2228.29 257.2 2199.69 237.18 2199.69 197.8C2199.69 158.42 2228.29 138.4 2255.13 138.4C2275.81 138.4 2290.11 149.84 2294.07 158.86H2295.39V140.6H2319.59V247.3C2319.59 289.54 2286.81 300.76 2260.63 300.76ZM2223.67 197.8C2223.67 222.44 2241.49 235.2 2259.75 235.2C2278.23 235.2 2296.05 222.44 2296.05 197.8C2296.05 173.16 2278.23 160.4 2259.75 160.4C2241.49 160.4 2223.67 173.16 2223.67 197.8ZM2398.1 257.2C2368.4 257.2 2338.26 236.3 2338.26 197.8C2338.26 159.3 2368.4 138.4 2398.1 138.4C2427.8 138.4 2457.94 159.3 2457.94 197.8C2457.94 236.3 2427.8 257.2 2398.1 257.2ZM2362.24 197.8C2362.24 221.34 2379.4 234.98 2398.1 234.98C2416.8 234.98 2433.74 221.34 2433.74 197.8C2433.74 174.26 2416.8 160.62 2398.1 160.62C2379.4 160.62 2362.24 174.26 2362.24 197.8ZM2530.88 257.2C2501.18 257.2 2471.04 236.3 2471.04 197.8C2471.04 159.3 2501.18 138.4 2530.88 138.4C2560.58 138.4 2590.72 159.3 2590.72 197.8C2590.72 236.3 2560.58 257.2 2530.88 257.2ZM2495.02 197.8C2495.02 221.34 2512.18 234.98 2530.88 234.98C2549.58 234.98 2566.52 221.34 2566.52 197.8C2566.52 174.26 2549.58 160.62 2530.88 160.62C2512.18 160.62 2495.02 174.26 2495.02 197.8ZM2723.71 255H2699.51V236.74H2698.85C2694.67 245.76 2680.15 257.2 2659.25 257.2C2632.19 257.2 2603.81 237.18 2603.81 197.8C2603.81 158.42 2632.19 138.4 2659.25 138.4C2680.15 138.4 2694.67 149.84 2698.85 158.86H2699.51V98.8H2723.71V255ZM2627.79 197.8C2627.79 222.44 2645.61 235.2 2663.87 235.2C2682.35 235.2 2700.17 222.44 2700.17 197.8C2700.17 173.16 2682.35 160.4 2663.87 160.4C2645.61 160.4 2627.79 173.16 2627.79 197.8Z" fill="#222222"/>
    <path d="M1431.89 343.333L1378.03 321.518C1407.62 248.432 1408.54 215.593 1406.86 185.729C1406.61 181.146 1405.96 176.594 1404.92 172.123C1397.8 135.847 1376.14 117.512 1346.78 113.967C1325.41 111.363 1308.54 116.157 1295.13 123.906V84.1413C1311.6 74.9636 1330.3 70.058 1349.79 70.058C1379.52 70.058 1407.39 80.8053 1428.25 100.315C1450.33 120.956 1462.98 149.367 1464.87 182.438C1467.31 225.465 1462.63 267.39 1431.89 343.333Z" fill="url(#paint0_linear_3_3)"/>
    <path d="M1402.62 245.394C1399.87 258.424 1395.7 273.459 1389.43 291.398C1377.09 295.84 1364.06 298.102 1350.94 298.086C1288.12 298.086 1237 246.935 1237 184.068V54H1295.12V184.091C1295.12 188.902 1295.74 193.692 1296.96 198.344H1296.94C1304.27 228.9 1326.33 250.671 1353.47 253.968C1373.55 256.413 1389.62 252.338 1402.62 245.394Z" fill="url(#paint1_linear_3_3)"/>
    <path d="M1402.61 245.436C1389.61 252.38 1373.55 256.459 1353.48 254.015C1326.33 250.718 1304.27 228.947 1296.95 198.39C1303.26 222.305 1325.09 239.994 1350.95 239.994C1381.58 239.994 1406.51 215.202 1406.77 184.622C1406.81 184.968 1406.84 185.337 1406.86 185.683C1407.82 202.448 1407.94 220.16 1402.61 245.436Z" fill="url(#paint2_linear_3_3)"/>
    <path d="M1404.91 172.114C1402.12 160.284 1396.59 150.299 1388.57 142.78C1378.5 133.377 1364.74 128.205 1349.79 128.205C1319.14 128.205 1295.12 152.742 1295.12 184.083V123.893C1308.53 116.143 1325.4 111.347 1346.77 113.953C1376.12 117.508 1397.79 135.838 1404.91 172.114Z" fill="url(#paint3_linear_3_3)"/>
    <rect x="1676" y="98" width="25" height="23" fill="#FFBE4D"/>
    <defs>
        <linearGradient id="paint0_linear_3_3" x1="1323.55" y1="68.8978" x2="1448.01" y2="283.252" gradientUnits="userSpaceOnUse">
            <stop stop-color="#EF5266"/>
            <stop offset="1" stop-color="#FFD528"/>
        </linearGradient>
        <linearGradient id="paint1_linear_3_3" x1="1362.01" y1="306.423" x2="1226.79" y2="59.592" gradientUnits="userSpaceOnUse">
            <stop stop-color="#333333"/>
            <stop offset="0.8" stop-color="#727474"/>
        </linearGradient>
        <linearGradient id="paint2_linear_3_3" x1="1407.63" y1="227.261" x2="1297.37" y2="196.824" gradientUnits="userSpaceOnUse">
            <stop stop-color="#727474"/>
            <stop offset="1" stop-color="#333333"/>
        </linearGradient>
        <linearGradient id="paint3_linear_3_3" x1="1295.12" y1="148.661" x2="1404.91" y2="148.661" gradientUnits="userSpaceOnUse">
            <stop stop-color="#CE1E4D"/>
            <stop offset="1" stop-color="#F69055"/>
        </linearGradient>
    </defs>
</svg>
