<svg width="243" height="60" viewBox="0 0 243 60" fill="none" xmlns="http://www.w3.org/2000/svg">
<rect width="25" height="25" fill="#FFFF76"/>
<path d="M11.7412 18H5.17188V17.0225L7.80371 14.377C8.60579 13.5658 9.13444 12.987 9.38965 12.6406C9.64486 12.2943 9.83626 11.957 9.96387 11.6289C10.0915 11.3008 10.1553 10.9476 10.1553 10.5693C10.1553 10.0361 9.99349 9.61458 9.66992 9.30469C9.34635 8.99023 8.89746 8.83301 8.32324 8.83301C7.90853 8.83301 7.51432 8.90137 7.14062 9.03809C6.77148 9.1748 6.35905 9.42318 5.90332 9.7832L5.30176 9.01074C6.22233 8.24512 7.22493 7.8623 8.30957 7.8623C9.24837 7.8623 9.98438 8.10384 10.5176 8.58691C11.0508 9.06543 11.3174 9.71029 11.3174 10.5215C11.3174 11.1549 11.1396 11.7816 10.7842 12.4014C10.4287 13.0212 9.76335 13.805 8.78809 14.7529L6.60059 16.8926V16.9473H11.7412V18ZM19.7529 12.2715C19.7529 16.1816 18.2399 18.1367 15.2139 18.1367C14.6852 18.1367 14.266 18.0911 13.9561 18V17.0225C14.3206 17.141 14.7354 17.2002 15.2002 17.2002C16.2939 17.2002 17.1188 16.863 17.6748 16.1885C18.2354 15.5094 18.5407 14.4704 18.5908 13.0713H18.5088C18.2581 13.4495 17.9255 13.7389 17.5107 13.9395C17.096 14.1354 16.6289 14.2334 16.1094 14.2334C15.2253 14.2334 14.5234 13.9691 14.0039 13.4404C13.4844 12.9118 13.2246 12.1735 13.2246 11.2256C13.2246 10.1865 13.514 9.36621 14.0928 8.76465C14.6761 8.16309 15.4417 7.8623 16.3896 7.8623C17.0687 7.8623 17.6611 8.03776 18.167 8.38867C18.6774 8.73503 19.0693 9.24316 19.3428 9.91309C19.6162 10.5785 19.7529 11.3646 19.7529 12.2715ZM16.3896 8.83301C15.738 8.83301 15.2344 9.04264 14.8789 9.46191C14.5234 9.88118 14.3457 10.4645 14.3457 11.2119C14.3457 11.8682 14.5098 12.3854 14.8379 12.7637C15.166 13.1374 15.665 13.3242 16.335 13.3242C16.7497 13.3242 17.1302 13.2399 17.4766 13.0713C17.8275 12.9027 18.1032 12.6725 18.3037 12.3809C18.5042 12.0892 18.6045 11.7839 18.6045 11.4648C18.6045 10.9863 18.5111 10.5443 18.3242 10.1387C18.1374 9.73307 17.8753 9.41406 17.5381 9.18164C17.2054 8.94922 16.8226 8.83301 16.3896 8.83301Z" fill="black"/>
<path d="M37.048 10.416H34.216V9.432H40.996V10.416H38.164V18H37.048V10.416ZM43.2833 18.192C42.8113 18.192 42.3913 18.116 42.0233 17.964C41.6553 17.812 41.3433 17.596 41.0873 17.316C40.8313 17.036 40.6353 16.692 40.4993 16.284C40.3633 15.876 40.2953 15.42 40.2953 14.916C40.2953 14.412 40.3673 13.956 40.5113 13.548C40.6553 13.14 40.8593 12.792 41.1233 12.504C41.3873 12.216 41.7033 11.996 42.0713 11.844C42.4473 11.684 42.8633 11.604 43.3193 11.604C43.7833 11.604 44.1993 11.68 44.5673 11.832C44.9353 11.984 45.2473 12.204 45.5033 12.492C45.7673 12.772 45.9673 13.112 46.1033 13.512C46.2393 13.912 46.3073 14.364 46.3073 14.868C46.3073 15.38 46.2353 15.84 46.0913 16.248C45.9553 16.656 45.7553 17.004 45.4913 17.292C45.2353 17.58 44.9193 17.804 44.5433 17.964C44.1673 18.116 43.7473 18.192 43.2833 18.192ZM43.2953 17.328C43.6313 17.328 43.9193 17.268 44.1593 17.148C44.3993 17.028 44.5953 16.86 44.7473 16.644C44.9073 16.428 45.0233 16.172 45.0953 15.876C45.1673 15.572 45.2033 15.24 45.2033 14.88C45.2033 14.528 45.1673 14.204 45.0953 13.908C45.0233 13.612 44.9073 13.36 44.7473 13.152C44.5953 12.936 44.3993 12.768 44.1593 12.648C43.9193 12.528 43.6313 12.468 43.2953 12.468C42.9593 12.468 42.6713 12.528 42.4313 12.648C42.1993 12.768 42.0033 12.936 41.8433 13.152C41.6913 13.36 41.5793 13.612 41.5073 13.908C41.4353 14.204 41.3993 14.532 41.3993 14.892C41.3993 15.252 41.4353 15.58 41.5073 15.876C41.5793 16.172 41.6913 16.428 41.8433 16.644C41.9953 16.86 42.1913 17.028 42.4313 17.148C42.6713 17.268 42.9593 17.328 43.2953 17.328ZM52.2183 17.112C51.9623 17.456 51.6663 17.724 51.3303 17.916C50.9943 18.1 50.5983 18.192 50.1423 18.192C49.6863 18.192 49.2903 18.108 48.9543 17.94C48.6263 17.772 48.3543 17.544 48.1383 17.256C47.9223 16.96 47.7623 16.612 47.6583 16.212C47.5543 15.812 47.5023 15.384 47.5023 14.928C47.5023 14.416 47.5663 13.956 47.6943 13.548C47.8223 13.132 48.0023 12.78 48.2343 12.492C48.4743 12.204 48.7623 11.984 49.0983 11.832C49.4423 11.68 49.8303 11.604 50.2623 11.604C50.5903 11.604 50.9223 11.672 51.2583 11.808C51.5943 11.936 51.9063 12.184 52.1943 12.552V9.432H53.2383V18H52.2183V17.112ZM52.2303 14.712C52.2303 14.216 52.1743 13.832 52.0623 13.56C51.9583 13.28 51.7823 13.044 51.5343 12.852C51.3583 12.708 51.1783 12.608 50.9943 12.552C50.8183 12.496 50.6223 12.468 50.4063 12.468C50.1503 12.468 49.9103 12.512 49.6863 12.6C49.4703 12.688 49.2783 12.832 49.1103 13.032C48.9503 13.224 48.8223 13.476 48.7263 13.788C48.6383 14.092 48.5943 14.464 48.5943 14.904C48.5943 15.36 48.6423 15.744 48.7383 16.056C48.8423 16.368 48.9743 16.616 49.1343 16.8C49.3023 16.984 49.4863 17.116 49.6863 17.196C49.8943 17.276 50.1063 17.316 50.3223 17.316C50.5543 17.316 50.7623 17.288 50.9463 17.232C51.1303 17.176 51.3143 17.08 51.4983 16.944C51.7383 16.752 51.9183 16.512 52.0383 16.224C52.1663 15.936 52.2303 15.572 52.2303 15.132V14.712ZM58.7188 17.148C58.4948 17.42 58.2108 17.656 57.8668 17.856C57.5228 18.048 57.0948 18.144 56.5828 18.144C56.2708 18.144 55.9828 18.104 55.7188 18.024C55.4628 17.952 55.2388 17.84 55.0468 17.688C54.8628 17.528 54.7188 17.332 54.6148 17.1C54.5108 16.868 54.4588 16.596 54.4588 16.284C54.4588 15.86 54.5468 15.516 54.7228 15.252C54.9068 14.988 55.1468 14.78 55.4428 14.628C55.7468 14.476 56.0868 14.368 56.4628 14.304C56.8388 14.24 57.2268 14.2 57.6268 14.184L58.6948 14.148V13.908C58.6948 13.38 58.5828 13 58.3588 12.768C58.1348 12.536 57.7708 12.42 57.2668 12.42C56.7708 12.42 56.4068 12.504 56.1748 12.672C55.9428 12.832 55.7908 13.056 55.7188 13.344L54.7708 13.236C54.8828 12.668 55.1508 12.256 55.5748 12C55.9988 11.736 56.5748 11.604 57.3028 11.604C57.7508 11.604 58.1268 11.66 58.4308 11.772C58.7428 11.876 58.9948 12.028 59.1868 12.228C59.3788 12.428 59.5148 12.676 59.5948 12.972C59.6828 13.268 59.7268 13.6 59.7268 13.968V18H58.7188V17.148ZM58.6948 14.892L57.6988 14.928C57.2748 14.944 56.9228 14.984 56.6428 15.048C56.3628 15.112 56.1388 15.2 55.9708 15.312C55.8108 15.416 55.6948 15.548 55.6228 15.708C55.5588 15.868 55.5268 16.052 55.5268 16.26C55.5268 16.572 55.6188 16.824 55.8028 17.016C55.9948 17.2 56.3068 17.292 56.7388 17.292C57.3548 17.292 57.8348 17.14 58.1788 16.836C58.5228 16.532 58.6948 16.116 58.6948 15.588V14.892ZM61.2878 19.32C61.5118 19.4 61.7358 19.44 61.9598 19.44C62.2158 19.44 62.4118 19.372 62.5478 19.236C62.6918 19.108 62.8318 18.864 62.9678 18.504L63.2198 17.844L60.5918 11.796H61.8038L63.7598 16.668L65.5478 11.796H66.6998L63.9878 18.588C63.8758 18.868 63.7638 19.112 63.6518 19.32C63.5398 19.536 63.4158 19.72 63.2798 19.872C63.1438 20.024 62.9798 20.136 62.7878 20.208C62.6038 20.288 62.3758 20.328 62.1038 20.328C61.9118 20.328 61.7398 20.316 61.5878 20.292C61.4358 20.268 61.2678 20.224 61.0838 20.16L61.2878 19.32Z" fill="#1F2124"/>
<rect x="118" width="25" height="25" fill="#1087FF"/>
<path d="M129.728 18H123.179V17.0498L125.852 14.3359C126.348 13.8346 126.765 13.388 127.103 12.9961C127.444 12.6042 127.704 12.2191 127.882 11.8408C128.06 11.458 128.148 11.0387 128.148 10.583C128.148 10.0179 127.98 9.58724 127.643 9.29102C127.31 8.99023 126.87 8.83984 126.323 8.83984C125.845 8.83984 125.421 8.92188 125.052 9.08594C124.683 9.25 124.304 9.48242 123.917 9.7832L123.309 9.01758C123.573 8.79427 123.86 8.59603 124.17 8.42285C124.484 8.24967 124.819 8.11296 125.175 8.0127C125.535 7.91243 125.918 7.8623 126.323 7.8623C126.938 7.8623 127.469 7.9694 127.916 8.18359C128.363 8.39779 128.707 8.70312 128.948 9.09961C129.194 9.49609 129.317 9.96777 129.317 10.5146C129.317 11.0433 129.213 11.5355 129.003 11.9912C128.793 12.4424 128.499 12.8913 128.121 13.3379C127.743 13.7799 127.301 14.2493 126.795 14.7461L124.621 16.9131V16.9609H129.728V18ZM137.753 12.2646C137.753 12.8708 137.71 13.4609 137.623 14.0352C137.541 14.6094 137.397 15.1449 137.192 15.6416C136.992 16.1383 136.718 16.5736 136.372 16.9473C136.026 17.321 135.59 17.6149 135.066 17.8291C134.547 18.0387 133.925 18.1436 133.2 18.1436C133.004 18.1436 132.781 18.1299 132.53 18.1025C132.28 18.0798 132.075 18.0456 131.915 18V17.0156C132.084 17.0749 132.282 17.1227 132.51 17.1592C132.738 17.1911 132.961 17.207 133.18 17.207C134.032 17.207 134.702 17.0247 135.189 16.6602C135.677 16.291 136.028 15.792 136.242 15.1631C136.456 14.5296 136.577 13.8187 136.604 13.0303H136.522C136.386 13.249 136.206 13.4518 135.982 13.6387C135.764 13.821 135.497 13.9691 135.183 14.083C134.868 14.1924 134.501 14.2471 134.082 14.2471C133.503 14.2471 132.997 14.1286 132.564 13.8916C132.136 13.6546 131.801 13.3105 131.56 12.8594C131.323 12.4082 131.204 11.8636 131.204 11.2256C131.204 10.5374 131.334 9.94271 131.594 9.44141C131.858 8.93555 132.227 8.5459 132.701 8.27246C133.175 7.99902 133.733 7.8623 134.376 7.8623C134.868 7.8623 135.319 7.95573 135.729 8.14258C136.14 8.32943 136.495 8.6097 136.796 8.9834C137.101 9.35254 137.336 9.81055 137.5 10.3574C137.669 10.9043 137.753 11.54 137.753 12.2646ZM134.376 8.82617C133.77 8.82617 133.278 9.02441 132.899 9.4209C132.526 9.81738 132.339 10.4144 132.339 11.2119C132.339 11.8727 132.501 12.3945 132.824 12.7773C133.148 13.1602 133.647 13.3516 134.321 13.3516C134.786 13.3516 135.187 13.2581 135.524 13.0713C135.866 12.8844 136.128 12.6475 136.311 12.3604C136.497 12.0732 136.591 11.7793 136.591 11.4785C136.591 11.1777 136.545 10.8724 136.454 10.5625C136.368 10.2526 136.233 9.96777 136.051 9.70801C135.868 9.44368 135.638 9.23177 135.36 9.07227C135.082 8.9082 134.754 8.82617 134.376 8.82617Z" fill="white"/>
<path d="M152.948 9.432H155.948C156.572 9.432 157.128 9.52 157.616 9.696C158.112 9.864 158.528 10.124 158.864 10.476C159.208 10.828 159.472 11.268 159.656 11.796C159.84 12.324 159.932 12.944 159.932 13.656C159.932 14.376 159.832 15.008 159.632 15.552C159.44 16.096 159.16 16.548 158.792 16.908C158.424 17.268 157.976 17.54 157.448 17.724C156.92 17.908 156.328 18 155.672 18H152.948V9.432ZM155.72 17.04C156.784 17.04 157.56 16.744 158.048 16.152C158.536 15.552 158.78 14.728 158.78 13.68C158.78 13.16 158.724 12.696 158.612 12.288C158.508 11.88 158.34 11.536 158.108 11.256C157.884 10.968 157.592 10.752 157.232 10.608C156.872 10.456 156.444 10.38 155.948 10.38H154.052V17.04H155.72ZM165.234 17.148C165.01 17.42 164.726 17.656 164.382 17.856C164.038 18.048 163.61 18.144 163.098 18.144C162.786 18.144 162.498 18.104 162.234 18.024C161.978 17.952 161.754 17.84 161.562 17.688C161.378 17.528 161.234 17.332 161.13 17.1C161.026 16.868 160.974 16.596 160.974 16.284C160.974 15.86 161.062 15.516 161.238 15.252C161.422 14.988 161.662 14.78 161.958 14.628C162.262 14.476 162.602 14.368 162.978 14.304C163.354 14.24 163.742 14.2 164.142 14.184L165.21 14.148V13.908C165.21 13.38 165.098 13 164.874 12.768C164.65 12.536 164.286 12.42 163.782 12.42C163.286 12.42 162.922 12.504 162.69 12.672C162.458 12.832 162.306 13.056 162.234 13.344L161.286 13.236C161.398 12.668 161.666 12.256 162.09 12C162.514 11.736 163.09 11.604 163.818 11.604C164.266 11.604 164.642 11.66 164.946 11.772C165.258 11.876 165.51 12.028 165.702 12.228C165.894 12.428 166.03 12.676 166.11 12.972C166.198 13.268 166.242 13.6 166.242 13.968V18H165.234V17.148ZM165.21 14.892L164.214 14.928C163.79 14.944 163.438 14.984 163.158 15.048C162.878 15.112 162.654 15.2 162.486 15.312C162.326 15.416 162.21 15.548 162.138 15.708C162.074 15.868 162.042 16.052 162.042 16.26C162.042 16.572 162.134 16.824 162.318 17.016C162.51 17.2 162.822 17.292 163.254 17.292C163.87 17.292 164.35 17.14 164.694 16.836C165.038 16.532 165.21 16.116 165.21 15.588V14.892ZM168.187 12.624H167.227V11.796H168.187V10.104H169.231V11.796H170.875V12.624H169.231V16.26C169.231 16.564 169.299 16.808 169.435 16.992C169.571 17.176 169.779 17.268 170.059 17.268C170.235 17.268 170.387 17.256 170.515 17.232C170.651 17.208 170.775 17.176 170.887 17.136L171.067 17.94C170.907 17.996 170.731 18.04 170.539 18.072C170.355 18.112 170.135 18.132 169.879 18.132C169.527 18.132 169.243 18.08 169.027 17.976C168.811 17.872 168.639 17.724 168.511 17.532C168.383 17.34 168.295 17.112 168.247 16.848C168.207 16.584 168.187 16.296 168.187 15.984V12.624ZM177.141 16.26C177.037 16.86 176.769 17.332 176.337 17.676C175.913 18.02 175.301 18.192 174.501 18.192C173.557 18.192 172.833 17.908 172.329 17.34C171.825 16.764 171.573 15.964 171.573 14.94C171.573 14.404 171.645 13.928 171.789 13.512C171.933 13.096 172.133 12.748 172.389 12.468C172.653 12.188 172.965 11.976 173.325 11.832C173.685 11.68 174.077 11.604 174.501 11.604C174.981 11.604 175.393 11.68 175.737 11.832C176.081 11.984 176.361 12.196 176.577 12.468C176.801 12.732 176.965 13.048 177.069 13.416C177.181 13.784 177.237 14.188 177.237 14.628V15.156H172.629C172.629 15.468 172.669 15.76 172.749 16.032C172.837 16.296 172.957 16.528 173.109 16.728C173.269 16.92 173.465 17.072 173.697 17.184C173.929 17.296 174.197 17.352 174.501 17.352C175.021 17.352 175.401 17.256 175.641 17.064C175.881 16.864 176.045 16.596 176.133 16.26H177.141ZM176.193 14.376C176.193 14.08 176.161 13.812 176.097 13.572C176.033 13.332 175.933 13.128 175.797 12.96C175.661 12.784 175.485 12.648 175.269 12.552C175.053 12.456 174.793 12.408 174.489 12.408C173.937 12.408 173.505 12.576 173.193 12.912C172.889 13.248 172.709 13.736 172.653 14.376H176.193ZM182.06 15.564C182.156 16.164 182.392 16.6 182.768 16.872C183.152 17.136 183.72 17.268 184.472 17.268C184.848 17.268 185.16 17.228 185.408 17.148C185.664 17.06 185.868 16.948 186.02 16.812C186.172 16.668 186.28 16.504 186.344 16.32C186.408 16.128 186.44 15.928 186.44 15.72C186.44 15.552 186.42 15.392 186.38 15.24C186.34 15.08 186.26 14.936 186.14 14.808C186.028 14.68 185.868 14.568 185.66 14.472C185.46 14.376 185.2 14.3 184.88 14.244L183.8 14.052C183.376 13.98 183 13.884 182.672 13.764C182.344 13.644 182.064 13.492 181.832 13.308C181.608 13.116 181.436 12.88 181.316 12.6C181.204 12.32 181.148 11.98 181.148 11.58C181.148 11.188 181.228 10.844 181.388 10.548C181.556 10.252 181.78 10.004 182.06 9.804C182.34 9.604 182.672 9.456 183.056 9.36C183.44 9.264 183.856 9.216 184.304 9.216C184.872 9.216 185.344 9.28 185.72 9.408C186.104 9.528 186.416 9.692 186.656 9.9C186.896 10.108 187.076 10.348 187.196 10.62C187.324 10.884 187.42 11.156 187.484 11.436L186.452 11.64C186.388 11.4 186.304 11.188 186.2 11.004C186.104 10.812 185.972 10.656 185.804 10.536C185.644 10.408 185.444 10.312 185.204 10.248C184.964 10.184 184.672 10.152 184.328 10.152C183.936 10.152 183.608 10.188 183.344 10.26C183.08 10.332 182.868 10.432 182.708 10.56C182.548 10.68 182.432 10.828 182.36 11.004C182.296 11.172 182.264 11.352 182.264 11.544C182.264 11.752 182.288 11.936 182.336 12.096C182.392 12.248 182.48 12.384 182.6 12.504C182.728 12.616 182.892 12.712 183.092 12.792C183.292 12.864 183.54 12.928 183.836 12.984L185.036 13.2C185.924 13.368 186.576 13.648 186.992 14.04C187.408 14.424 187.616 14.992 187.616 15.744C187.616 16.088 187.548 16.412 187.412 16.716C187.284 17.012 187.088 17.272 186.824 17.496C186.568 17.72 186.244 17.896 185.852 18.024C185.46 18.152 185 18.216 184.472 18.216C183.968 18.216 183.508 18.164 183.092 18.06C182.684 17.964 182.328 17.808 182.024 17.592C181.72 17.376 181.476 17.1 181.292 16.764C181.108 16.428 180.996 16.028 180.956 15.564H182.06ZM194.367 16.26C194.263 16.86 193.995 17.332 193.563 17.676C193.139 18.02 192.527 18.192 191.727 18.192C190.783 18.192 190.059 17.908 189.555 17.34C189.051 16.764 188.799 15.964 188.799 14.94C188.799 14.404 188.871 13.928 189.015 13.512C189.159 13.096 189.359 12.748 189.615 12.468C189.879 12.188 190.191 11.976 190.551 11.832C190.911 11.68 191.303 11.604 191.727 11.604C192.207 11.604 192.619 11.68 192.963 11.832C193.307 11.984 193.587 12.196 193.803 12.468C194.027 12.732 194.191 13.048 194.295 13.416C194.407 13.784 194.463 14.188 194.463 14.628V15.156H189.855C189.855 15.468 189.895 15.76 189.975 16.032C190.063 16.296 190.183 16.528 190.335 16.728C190.495 16.92 190.691 17.072 190.923 17.184C191.155 17.296 191.423 17.352 191.727 17.352C192.247 17.352 192.627 17.256 192.867 17.064C193.107 16.864 193.271 16.596 193.359 16.26H194.367ZM193.419 14.376C193.419 14.08 193.387 13.812 193.323 13.572C193.259 13.332 193.159 13.128 193.023 12.96C192.887 12.784 192.711 12.648 192.495 12.552C192.279 12.456 192.019 12.408 191.715 12.408C191.163 12.408 190.731 12.576 190.419 12.912C190.115 13.248 189.935 13.736 189.879 14.376H193.419ZM195.871 9.432H196.915V18H195.871V9.432ZM203.906 16.26C203.802 16.86 203.534 17.332 203.102 17.676C202.678 18.02 202.066 18.192 201.266 18.192C200.322 18.192 199.598 17.908 199.094 17.34C198.59 16.764 198.338 15.964 198.338 14.94C198.338 14.404 198.41 13.928 198.554 13.512C198.698 13.096 198.898 12.748 199.154 12.468C199.418 12.188 199.73 11.976 200.09 11.832C200.45 11.68 200.842 11.604 201.266 11.604C201.746 11.604 202.158 11.68 202.502 11.832C202.846 11.984 203.126 12.196 203.342 12.468C203.566 12.732 203.73 13.048 203.834 13.416C203.946 13.784 204.002 14.188 204.002 14.628V15.156H199.394C199.394 15.468 199.434 15.76 199.514 16.032C199.602 16.296 199.722 16.528 199.874 16.728C200.034 16.92 200.23 17.072 200.462 17.184C200.694 17.296 200.962 17.352 201.266 17.352C201.786 17.352 202.166 17.256 202.406 17.064C202.646 16.864 202.81 16.596 202.898 16.26H203.906ZM202.958 14.376C202.958 14.08 202.926 13.812 202.862 13.572C202.798 13.332 202.698 13.128 202.562 12.96C202.426 12.784 202.25 12.648 202.034 12.552C201.818 12.456 201.558 12.408 201.254 12.408C200.702 12.408 200.27 12.576 199.958 12.912C199.654 13.248 199.474 13.736 199.418 14.376H202.958ZM210.762 15.9C210.658 16.612 210.386 17.172 209.946 17.58C209.506 17.988 208.886 18.192 208.086 18.192C207.614 18.192 207.194 18.116 206.826 17.964C206.466 17.812 206.162 17.596 205.914 17.316C205.674 17.028 205.49 16.684 205.362 16.284C205.242 15.876 205.182 15.42 205.182 14.916C205.182 14.42 205.25 13.968 205.386 13.56C205.522 13.152 205.718 12.804 205.974 12.516C206.23 12.228 206.542 12.004 206.91 11.844C207.278 11.684 207.694 11.604 208.158 11.604C208.902 11.604 209.478 11.788 209.886 12.156C210.294 12.516 210.554 13.016 210.666 13.656L209.622 13.848C209.582 13.648 209.526 13.464 209.454 13.296C209.39 13.128 209.298 12.984 209.178 12.864C209.058 12.736 208.91 12.64 208.734 12.576C208.566 12.504 208.362 12.468 208.122 12.468C207.794 12.468 207.514 12.532 207.282 12.66C207.05 12.78 206.858 12.952 206.706 13.176C206.562 13.392 206.454 13.648 206.382 13.944C206.318 14.24 206.286 14.556 206.286 14.892C206.286 15.228 206.318 15.544 206.382 15.84C206.446 16.136 206.55 16.396 206.694 16.62C206.838 16.836 207.026 17.008 207.258 17.136C207.49 17.264 207.774 17.328 208.11 17.328C208.614 17.328 208.986 17.2 209.226 16.944C209.474 16.688 209.634 16.34 209.706 15.9H210.762ZM212.449 12.624H211.489V11.796H212.449V10.104H213.493V11.796H215.137V12.624H213.493V16.26C213.493 16.564 213.561 16.808 213.697 16.992C213.833 17.176 214.041 17.268 214.321 17.268C214.497 17.268 214.649 17.256 214.777 17.232C214.913 17.208 215.037 17.176 215.149 17.136L215.329 17.94C215.169 17.996 214.993 18.04 214.801 18.072C214.617 18.112 214.397 18.132 214.141 18.132C213.789 18.132 213.505 18.08 213.289 17.976C213.073 17.872 212.901 17.724 212.773 17.532C212.645 17.34 212.557 17.112 212.509 16.848C212.469 16.584 212.449 16.296 212.449 15.984V12.624ZM221.402 16.26C221.298 16.86 221.03 17.332 220.598 17.676C220.174 18.02 219.562 18.192 218.762 18.192C217.818 18.192 217.094 17.908 216.59 17.34C216.086 16.764 215.834 15.964 215.834 14.94C215.834 14.404 215.906 13.928 216.05 13.512C216.194 13.096 216.394 12.748 216.65 12.468C216.914 12.188 217.226 11.976 217.586 11.832C217.946 11.68 218.338 11.604 218.762 11.604C219.242 11.604 219.654 11.68 219.998 11.832C220.342 11.984 220.622 12.196 220.838 12.468C221.062 12.732 221.226 13.048 221.33 13.416C221.442 13.784 221.498 14.188 221.498 14.628V15.156H216.89C216.89 15.468 216.93 15.76 217.01 16.032C217.098 16.296 217.218 16.528 217.37 16.728C217.53 16.92 217.726 17.072 217.958 17.184C218.19 17.296 218.458 17.352 218.762 17.352C219.282 17.352 219.662 17.256 219.902 17.064C220.142 16.864 220.306 16.596 220.394 16.26H221.402ZM220.454 14.376C220.454 14.08 220.422 13.812 220.358 13.572C220.294 13.332 220.194 13.128 220.058 12.96C219.922 12.784 219.746 12.648 219.53 12.552C219.314 12.456 219.054 12.408 218.75 12.408C218.198 12.408 217.766 12.576 217.454 12.912C217.15 13.248 216.97 13.736 216.914 14.376H220.454ZM227.394 17.112C227.138 17.456 226.842 17.724 226.506 17.916C226.17 18.1 225.774 18.192 225.318 18.192C224.862 18.192 224.466 18.108 224.13 17.94C223.802 17.772 223.53 17.544 223.314 17.256C223.098 16.96 222.938 16.612 222.834 16.212C222.73 15.812 222.678 15.384 222.678 14.928C222.678 14.416 222.742 13.956 222.87 13.548C222.998 13.132 223.178 12.78 223.41 12.492C223.65 12.204 223.938 11.984 224.274 11.832C224.618 11.68 225.006 11.604 225.438 11.604C225.766 11.604 226.098 11.672 226.434 11.808C226.77 11.936 227.082 12.184 227.37 12.552V9.432H228.414V18H227.394V17.112ZM227.406 14.712C227.406 14.216 227.35 13.832 227.238 13.56C227.134 13.28 226.958 13.044 226.71 12.852C226.534 12.708 226.354 12.608 226.17 12.552C225.994 12.496 225.798 12.468 225.582 12.468C225.326 12.468 225.086 12.512 224.862 12.6C224.646 12.688 224.454 12.832 224.286 13.032C224.126 13.224 223.998 13.476 223.902 13.788C223.814 14.092 223.77 14.464 223.77 14.904C223.77 15.36 223.818 15.744 223.914 16.056C224.018 16.368 224.15 16.616 224.31 16.8C224.478 16.984 224.662 17.116 224.862 17.196C225.07 17.276 225.282 17.316 225.498 17.316C225.73 17.316 225.938 17.288 226.122 17.232C226.306 17.176 226.49 17.08 226.674 16.944C226.914 16.752 227.094 16.512 227.214 16.224C227.342 15.936 227.406 15.572 227.406 15.132V14.712Z" fill="#1F2124"/>
<rect y="35" width="25" height="25" fill="white"/>
<path d="M11.7275 53H5.17871V52.0498L7.85156 49.3359C8.34831 48.8346 8.7653 48.388 9.10254 47.9961C9.44434 47.6042 9.7041 47.2191 9.88184 46.8408C10.0596 46.458 10.1484 46.0387 10.1484 45.583C10.1484 45.0179 9.97982 44.5872 9.64258 44.291C9.3099 43.9902 8.87012 43.8398 8.32324 43.8398C7.84473 43.8398 7.4209 43.9219 7.05176 44.0859C6.68262 44.25 6.30436 44.4824 5.91699 44.7832L5.30859 44.0176C5.57292 43.7943 5.86003 43.596 6.16992 43.4229C6.48438 43.2497 6.81934 43.113 7.1748 43.0127C7.53483 42.9124 7.91764 42.8623 8.32324 42.8623C8.93848 42.8623 9.4694 42.9694 9.91602 43.1836C10.3626 43.3978 10.7067 43.7031 10.9482 44.0996C11.1943 44.4961 11.3174 44.9678 11.3174 45.5146C11.3174 46.0433 11.2126 46.5355 11.0029 46.9912C10.7933 47.4424 10.4993 47.8913 10.1211 48.3379C9.74284 48.7799 9.30078 49.2493 8.79492 49.7461L6.62109 51.9131V51.9609H11.7275V53ZM19.7529 47.2646C19.7529 47.8708 19.7096 48.4609 19.623 49.0352C19.541 49.6094 19.3975 50.1449 19.1924 50.6416C18.9919 51.1383 18.7184 51.5736 18.3721 51.9473C18.0257 52.321 17.5905 52.6149 17.0664 52.8291C16.5469 53.0387 15.9248 53.1436 15.2002 53.1436C15.0042 53.1436 14.7809 53.1299 14.5303 53.1025C14.2796 53.0798 14.0745 53.0456 13.915 53V52.0156C14.0837 52.0749 14.2819 52.1227 14.5098 52.1592C14.7376 52.1911 14.9609 52.207 15.1797 52.207C16.0319 52.207 16.7018 52.0247 17.1895 51.6602C17.6771 51.291 18.028 50.792 18.2422 50.1631C18.4564 49.5296 18.5771 48.8187 18.6045 48.0303H18.5225C18.3857 48.249 18.2057 48.4518 17.9824 48.6387C17.7637 48.821 17.4971 48.9691 17.1826 49.083C16.8682 49.1924 16.5013 49.2471 16.082 49.2471C15.5033 49.2471 14.9974 49.1286 14.5645 48.8916C14.1361 48.6546 13.8011 48.3105 13.5596 47.8594C13.3226 47.4082 13.2041 46.8636 13.2041 46.2256C13.2041 45.5374 13.334 44.9427 13.5938 44.4414C13.8581 43.9355 14.2272 43.5459 14.7012 43.2725C15.1751 42.999 15.7334 42.8623 16.376 42.8623C16.8682 42.8623 17.3193 42.9557 17.7295 43.1426C18.1396 43.3294 18.4951 43.6097 18.7959 43.9834C19.1012 44.3525 19.3359 44.8105 19.5 45.3574C19.6686 45.9043 19.7529 46.54 19.7529 47.2646ZM16.376 43.8262C15.7699 43.8262 15.2777 44.0244 14.8994 44.4209C14.5257 44.8174 14.3389 45.4144 14.3389 46.2119C14.3389 46.8727 14.5007 47.3945 14.8242 47.7773C15.1478 48.1602 15.6468 48.3516 16.3213 48.3516C16.7861 48.3516 17.1872 48.2581 17.5244 48.0713C17.8662 47.8844 18.1283 47.6475 18.3105 47.3604C18.4974 47.0732 18.5908 46.7793 18.5908 46.4785C18.5908 46.1777 18.5452 45.8724 18.4541 45.5625C18.3675 45.2526 18.2331 44.9678 18.0508 44.708C17.8685 44.4437 17.6383 44.2318 17.3604 44.0723C17.0824 43.9082 16.7542 43.8262 16.376 43.8262Z" fill="#AF1211"/>
<path d="M34.144 44.432H35.392L37.18 51.476L39.04 44.468H40.228L42.076 51.476L43.852 44.432H45.028L42.652 53H41.488L39.58 45.836L37.708 53H36.58L34.144 44.432ZM50.961 51.26C50.857 51.86 50.589 52.332 50.157 52.676C49.733 53.02 49.121 53.192 48.321 53.192C47.377 53.192 46.653 52.908 46.149 52.34C45.645 51.764 45.393 50.964 45.393 49.94C45.393 49.404 45.465 48.928 45.609 48.512C45.753 48.096 45.953 47.748 46.209 47.468C46.473 47.188 46.785 46.976 47.145 46.832C47.505 46.68 47.897 46.604 48.321 46.604C48.801 46.604 49.213 46.68 49.557 46.832C49.901 46.984 50.181 47.196 50.397 47.468C50.621 47.732 50.785 48.048 50.889 48.416C51.001 48.784 51.057 49.188 51.057 49.628V50.156H46.449C46.449 50.468 46.489 50.76 46.569 51.032C46.657 51.296 46.777 51.528 46.929 51.728C47.089 51.92 47.285 52.072 47.517 52.184C47.749 52.296 48.017 52.352 48.321 52.352C48.841 52.352 49.221 52.256 49.461 52.064C49.701 51.864 49.865 51.596 49.953 51.26H50.961ZM50.013 49.376C50.013 49.08 49.981 48.812 49.917 48.572C49.853 48.332 49.753 48.128 49.617 47.96C49.481 47.784 49.305 47.648 49.089 47.552C48.873 47.456 48.613 47.408 48.309 47.408C47.757 47.408 47.325 47.576 47.013 47.912C46.709 48.248 46.529 48.736 46.473 49.376H50.013ZM57.8047 51.26C57.7007 51.86 57.4327 52.332 57.0007 52.676C56.5767 53.02 55.9647 53.192 55.1647 53.192C54.2207 53.192 53.4967 52.908 52.9927 52.34C52.4887 51.764 52.2367 50.964 52.2367 49.94C52.2367 49.404 52.3087 48.928 52.4527 48.512C52.5967 48.096 52.7967 47.748 53.0527 47.468C53.3167 47.188 53.6287 46.976 53.9887 46.832C54.3487 46.68 54.7407 46.604 55.1647 46.604C55.6447 46.604 56.0567 46.68 56.4007 46.832C56.7447 46.984 57.0247 47.196 57.2407 47.468C57.4647 47.732 57.6287 48.048 57.7327 48.416C57.8447 48.784 57.9007 49.188 57.9007 49.628V50.156H53.2927C53.2927 50.468 53.3327 50.76 53.4127 51.032C53.5007 51.296 53.6207 51.528 53.7727 51.728C53.9327 51.92 54.1287 52.072 54.3607 52.184C54.5927 52.296 54.8607 52.352 55.1647 52.352C55.6847 52.352 56.0647 52.256 56.3047 52.064C56.5447 51.864 56.7087 51.596 56.7967 51.26H57.8047ZM56.8567 49.376C56.8567 49.08 56.8247 48.812 56.7607 48.572C56.6967 48.332 56.5967 48.128 56.4607 47.96C56.3247 47.784 56.1487 47.648 55.9327 47.552C55.7167 47.456 55.4567 47.408 55.1527 47.408C54.6007 47.408 54.1687 47.576 53.8567 47.912C53.5527 48.248 53.3727 48.736 53.3167 49.376H56.8567ZM59.2845 44.432H60.3165V49.424L63.2205 46.796H64.4805L62.2605 48.872L64.7205 53H63.5325L61.4805 49.484L60.3165 50.528V53H59.2845V44.432ZM70.6602 51.26C70.5562 51.86 70.2882 52.332 69.8562 52.676C69.4322 53.02 68.8202 53.192 68.0202 53.192C67.0762 53.192 66.3522 52.908 65.8482 52.34C65.3442 51.764 65.0922 50.964 65.0922 49.94C65.0922 49.404 65.1642 48.928 65.3082 48.512C65.4522 48.096 65.6522 47.748 65.9082 47.468C66.1722 47.188 66.4842 46.976 66.8442 46.832C67.2042 46.68 67.5962 46.604 68.0202 46.604C68.5002 46.604 68.9122 46.68 69.2562 46.832C69.6002 46.984 69.8802 47.196 70.0962 47.468C70.3202 47.732 70.4842 48.048 70.5882 48.416C70.7002 48.784 70.7562 49.188 70.7562 49.628V50.156H66.1482C66.1482 50.468 66.1882 50.76 66.2682 51.032C66.3562 51.296 66.4762 51.528 66.6282 51.728C66.7882 51.92 66.9842 52.072 67.2162 52.184C67.4482 52.296 67.7162 52.352 68.0202 52.352C68.5402 52.352 68.9202 52.256 69.1602 52.064C69.4002 51.864 69.5642 51.596 69.6522 51.26H70.6602ZM69.7122 49.376C69.7122 49.08 69.6802 48.812 69.6162 48.572C69.5522 48.332 69.4522 48.128 69.3162 47.96C69.1802 47.784 69.0042 47.648 68.7882 47.552C68.5722 47.456 68.3122 47.408 68.0082 47.408C67.4562 47.408 67.0242 47.576 66.7122 47.912C66.4082 48.248 66.2282 48.736 66.1722 49.376H69.7122ZM72.1399 46.796H73.1719V47.744C73.4759 47.336 73.8119 47.044 74.1799 46.868C74.5479 46.692 74.9359 46.604 75.3439 46.604C76.0479 46.604 76.5679 46.796 76.9039 47.18C77.2479 47.564 77.4199 48.128 77.4199 48.872V53H76.3759V49.076C76.3759 48.5 76.2719 48.096 76.0639 47.864C75.8559 47.624 75.5359 47.504 75.1039 47.504C74.8719 47.504 74.6399 47.544 74.4079 47.624C74.1839 47.704 73.9799 47.832 73.7959 48.008C73.5959 48.184 73.4439 48.372 73.3399 48.572C73.2359 48.764 73.1839 49.016 73.1839 49.328V53H72.1399V46.796ZM83.4957 52.112C83.2397 52.456 82.9437 52.724 82.6077 52.916C82.2717 53.1 81.8757 53.192 81.4197 53.192C80.9637 53.192 80.5677 53.108 80.2317 52.94C79.9037 52.772 79.6317 52.544 79.4157 52.256C79.1997 51.96 79.0397 51.612 78.9357 51.212C78.8317 50.812 78.7797 50.384 78.7797 49.928C78.7797 49.416 78.8437 48.956 78.9717 48.548C79.0997 48.132 79.2797 47.78 79.5117 47.492C79.7517 47.204 80.0397 46.984 80.3757 46.832C80.7197 46.68 81.1077 46.604 81.5397 46.604C81.8677 46.604 82.1997 46.672 82.5357 46.808C82.8717 46.936 83.1837 47.184 83.4717 47.552V44.432H84.5157V53H83.4957V52.112ZM83.5077 49.712C83.5077 49.216 83.4517 48.832 83.3397 48.56C83.2357 48.28 83.0597 48.044 82.8117 47.852C82.6357 47.708 82.4557 47.608 82.2717 47.552C82.0957 47.496 81.8997 47.468 81.6837 47.468C81.4277 47.468 81.1877 47.512 80.9637 47.6C80.7477 47.688 80.5557 47.832 80.3877 48.032C80.2277 48.224 80.0997 48.476 80.0037 48.788C79.9157 49.092 79.8717 49.464 79.8717 49.904C79.8717 50.36 79.9197 50.744 80.0157 51.056C80.1197 51.368 80.2517 51.616 80.4117 51.8C80.5797 51.984 80.7637 52.116 80.9637 52.196C81.1717 52.276 81.3837 52.316 81.5997 52.316C81.8317 52.316 82.0397 52.288 82.2237 52.232C82.4077 52.176 82.5917 52.08 82.7757 51.944C83.0157 51.752 83.1957 51.512 83.3157 51.224C83.4437 50.936 83.5077 50.572 83.5077 50.132V49.712ZM86.8041 51.188C86.8761 51.62 87.0561 51.924 87.3441 52.1C87.6401 52.268 88.0401 52.352 88.5441 52.352C89.0721 52.352 89.4441 52.264 89.6601 52.088C89.8841 51.904 89.9961 51.664 89.9961 51.368C89.9961 51.248 89.9801 51.136 89.9481 51.032C89.9241 50.92 89.8721 50.824 89.7921 50.744C89.7121 50.656 89.6001 50.58 89.4561 50.516C89.3121 50.452 89.1241 50.4 88.8921 50.36L88.1001 50.24C87.7481 50.184 87.4401 50.112 87.1761 50.024C86.9121 49.936 86.6881 49.824 86.5041 49.688C86.3201 49.544 86.1801 49.372 86.0841 49.172C85.9961 48.964 85.9521 48.716 85.9521 48.428C85.9521 48.14 86.0121 47.884 86.1321 47.66C86.2601 47.436 86.4321 47.248 86.6481 47.096C86.8721 46.936 87.1321 46.816 87.4281 46.736C87.7321 46.648 88.0601 46.604 88.4121 46.604C88.8601 46.604 89.2321 46.648 89.5281 46.736C89.8321 46.824 90.0801 46.944 90.2721 47.096C90.4641 47.248 90.6121 47.428 90.7161 47.636C90.8201 47.844 90.9001 48.064 90.9561 48.296L90.0081 48.452C89.9521 48.284 89.8881 48.136 89.8161 48.008C89.7441 47.88 89.6481 47.776 89.5281 47.696C89.4081 47.608 89.2601 47.544 89.0841 47.504C88.9161 47.456 88.7041 47.432 88.4481 47.432C88.1601 47.432 87.9201 47.46 87.7281 47.516C87.5361 47.564 87.3801 47.632 87.2601 47.72C87.1481 47.808 87.0681 47.908 87.0201 48.02C86.9721 48.124 86.9481 48.236 86.9481 48.356C86.9481 48.484 86.9641 48.6 86.9961 48.704C87.0281 48.8 87.0881 48.888 87.1761 48.968C87.2641 49.04 87.3841 49.104 87.5361 49.16C87.6881 49.216 87.8841 49.264 88.1241 49.304L89.0241 49.448C89.7521 49.568 90.2721 49.776 90.5841 50.072C90.9041 50.368 91.0641 50.8 91.0641 51.368C91.0641 51.632 91.0121 51.876 90.9081 52.1C90.8041 52.316 90.6481 52.508 90.4401 52.676C90.2321 52.836 89.9721 52.96 89.6601 53.048C89.3481 53.144 88.9841 53.192 88.5681 53.192C88.1921 53.192 87.8401 53.156 87.5121 53.084C87.1921 53.012 86.9081 52.9 86.6601 52.748C86.4121 52.588 86.2121 52.38 86.0601 52.124C85.9081 51.868 85.8201 51.556 85.7961 51.188H86.8041Z" fill="#1F2124"/>
<rect x="118" y="35" width="25" height="25" fill="white"/>
<rect x="130" y="58" width="2" height="2" fill="black"/>
<path d="M129.741 53H123.172V52.0225L125.804 49.377C126.606 48.5658 127.134 47.987 127.39 47.6406C127.645 47.2943 127.836 46.957 127.964 46.6289C128.091 46.3008 128.155 45.9476 128.155 45.5693C128.155 45.0361 127.993 44.6146 127.67 44.3047C127.346 43.9902 126.897 43.833 126.323 43.833C125.909 43.833 125.514 43.9014 125.141 44.0381C124.771 44.1748 124.359 44.4232 123.903 44.7832L123.302 44.0107C124.222 43.2451 125.225 42.8623 126.31 42.8623C127.248 42.8623 127.984 43.1038 128.518 43.5869C129.051 44.0654 129.317 44.7103 129.317 45.5215C129.317 46.1549 129.14 46.7816 128.784 47.4014C128.429 48.0212 127.763 48.805 126.788 49.7529L124.601 51.8926V51.9473H129.741V53ZM137.753 47.2715C137.753 51.1816 136.24 53.1367 133.214 53.1367C132.685 53.1367 132.266 53.0911 131.956 53V52.0225C132.321 52.141 132.735 52.2002 133.2 52.2002C134.294 52.2002 135.119 51.863 135.675 51.1885C136.235 50.5094 136.541 49.4704 136.591 48.0713H136.509C136.258 48.4495 135.925 48.7389 135.511 48.9395C135.096 49.1354 134.629 49.2334 134.109 49.2334C133.225 49.2334 132.523 48.9691 132.004 48.4404C131.484 47.9118 131.225 47.1735 131.225 46.2256C131.225 45.1865 131.514 44.3662 132.093 43.7646C132.676 43.1631 133.442 42.8623 134.39 42.8623C135.069 42.8623 135.661 43.0378 136.167 43.3887C136.677 43.735 137.069 44.2432 137.343 44.9131C137.616 45.5785 137.753 46.3646 137.753 47.2715ZM134.39 43.833C133.738 43.833 133.234 44.0426 132.879 44.4619C132.523 44.8812 132.346 45.4645 132.346 46.2119C132.346 46.8682 132.51 47.3854 132.838 47.7637C133.166 48.1374 133.665 48.3242 134.335 48.3242C134.75 48.3242 135.13 48.2399 135.477 48.0713C135.827 47.9027 136.103 47.6725 136.304 47.3809C136.504 47.0892 136.604 46.7839 136.604 46.4648C136.604 45.9863 136.511 45.5443 136.324 45.1387C136.137 44.7331 135.875 44.4141 135.538 44.1816C135.205 43.9492 134.823 43.833 134.39 43.833Z" fill="black"/>
<path d="M152.948 44.432H155.948C156.572 44.432 157.128 44.52 157.616 44.696C158.112 44.864 158.528 45.124 158.864 45.476C159.208 45.828 159.472 46.268 159.656 46.796C159.84 47.324 159.932 47.944 159.932 48.656C159.932 49.376 159.832 50.008 159.632 50.552C159.44 51.096 159.16 51.548 158.792 51.908C158.424 52.268 157.976 52.54 157.448 52.724C156.92 52.908 156.328 53 155.672 53H152.948V44.432ZM155.72 52.04C156.784 52.04 157.56 51.744 158.048 51.152C158.536 50.552 158.78 49.728 158.78 48.68C158.78 48.16 158.724 47.696 158.612 47.288C158.508 46.88 158.34 46.536 158.108 46.256C157.884 45.968 157.592 45.752 157.232 45.608C156.872 45.456 156.444 45.38 155.948 45.38H154.052V52.04H155.72ZM165.234 52.148C165.01 52.42 164.726 52.656 164.382 52.856C164.038 53.048 163.61 53.144 163.098 53.144C162.786 53.144 162.498 53.104 162.234 53.024C161.978 52.952 161.754 52.84 161.562 52.688C161.378 52.528 161.234 52.332 161.13 52.1C161.026 51.868 160.974 51.596 160.974 51.284C160.974 50.86 161.062 50.516 161.238 50.252C161.422 49.988 161.662 49.78 161.958 49.628C162.262 49.476 162.602 49.368 162.978 49.304C163.354 49.24 163.742 49.2 164.142 49.184L165.21 49.148V48.908C165.21 48.38 165.098 48 164.874 47.768C164.65 47.536 164.286 47.42 163.782 47.42C163.286 47.42 162.922 47.504 162.69 47.672C162.458 47.832 162.306 48.056 162.234 48.344L161.286 48.236C161.398 47.668 161.666 47.256 162.09 47C162.514 46.736 163.09 46.604 163.818 46.604C164.266 46.604 164.642 46.66 164.946 46.772C165.258 46.876 165.51 47.028 165.702 47.228C165.894 47.428 166.03 47.676 166.11 47.972C166.198 48.268 166.242 48.6 166.242 48.968V53H165.234V52.148ZM165.21 49.892L164.214 49.928C163.79 49.944 163.438 49.984 163.158 50.048C162.878 50.112 162.654 50.2 162.486 50.312C162.326 50.416 162.21 50.548 162.138 50.708C162.074 50.868 162.042 51.052 162.042 51.26C162.042 51.572 162.134 51.824 162.318 52.016C162.51 52.2 162.822 52.292 163.254 52.292C163.87 52.292 164.35 52.14 164.694 51.836C165.038 51.532 165.21 51.116 165.21 50.588V49.892ZM168.187 47.624H167.227V46.796H168.187V45.104H169.231V46.796H170.875V47.624H169.231V51.26C169.231 51.564 169.299 51.808 169.435 51.992C169.571 52.176 169.779 52.268 170.059 52.268C170.235 52.268 170.387 52.256 170.515 52.232C170.651 52.208 170.775 52.176 170.887 52.136L171.067 52.94C170.907 52.996 170.731 53.04 170.539 53.072C170.355 53.112 170.135 53.132 169.879 53.132C169.527 53.132 169.243 53.08 169.027 52.976C168.811 52.872 168.639 52.724 168.511 52.532C168.383 52.34 168.295 52.112 168.247 51.848C168.207 51.584 168.187 51.296 168.187 50.984V47.624ZM177.141 51.26C177.037 51.86 176.769 52.332 176.337 52.676C175.913 53.02 175.301 53.192 174.501 53.192C173.557 53.192 172.833 52.908 172.329 52.34C171.825 51.764 171.573 50.964 171.573 49.94C171.573 49.404 171.645 48.928 171.789 48.512C171.933 48.096 172.133 47.748 172.389 47.468C172.653 47.188 172.965 46.976 173.325 46.832C173.685 46.68 174.077 46.604 174.501 46.604C174.981 46.604 175.393 46.68 175.737 46.832C176.081 46.984 176.361 47.196 176.577 47.468C176.801 47.732 176.965 48.048 177.069 48.416C177.181 48.784 177.237 49.188 177.237 49.628V50.156H172.629C172.629 50.468 172.669 50.76 172.749 51.032C172.837 51.296 172.957 51.528 173.109 51.728C173.269 51.92 173.465 52.072 173.697 52.184C173.929 52.296 174.197 52.352 174.501 52.352C175.021 52.352 175.401 52.256 175.641 52.064C175.881 51.864 176.045 51.596 176.133 51.26H177.141ZM176.193 49.376C176.193 49.08 176.161 48.812 176.097 48.572C176.033 48.332 175.933 48.128 175.797 47.96C175.661 47.784 175.485 47.648 175.269 47.552C175.053 47.456 174.793 47.408 174.489 47.408C173.937 47.408 173.505 47.576 173.193 47.912C172.889 48.248 172.709 48.736 172.653 49.376H176.193ZM180.584 46.796H181.724L182.972 51.74L184.4 46.832H185.456L186.848 51.74L188.084 46.796H189.188L187.376 53H186.272L184.88 48.056L183.476 53H182.384L180.584 46.796ZM190.117 46.796H191.161V53H190.117V46.796ZM190.081 44.432H191.197V45.644H190.081V44.432ZM193.148 47.624H192.188V46.796H193.148V45.104H194.192V46.796H195.836V47.624H194.192V51.26C194.192 51.564 194.26 51.808 194.396 51.992C194.532 52.176 194.74 52.268 195.02 52.268C195.196 52.268 195.348 52.256 195.476 52.232C195.612 52.208 195.736 52.176 195.848 52.136L196.028 52.94C195.868 52.996 195.692 53.04 195.5 53.072C195.316 53.112 195.096 53.132 194.84 53.132C194.488 53.132 194.204 53.08 193.988 52.976C193.772 52.872 193.6 52.724 193.472 52.532C193.344 52.34 193.256 52.112 193.208 51.848C193.168 51.584 193.148 51.296 193.148 50.984V47.624ZM196.949 44.432H197.993V47.72C198.297 47.328 198.629 47.044 198.989 46.868C199.357 46.692 199.745 46.604 200.153 46.604C200.857 46.604 201.377 46.796 201.713 47.18C202.057 47.564 202.229 48.128 202.229 48.872V53H201.173V49.076C201.173 48.5 201.069 48.096 200.861 47.864C200.661 47.624 200.345 47.504 199.913 47.504C199.681 47.504 199.449 47.544 199.217 47.624C198.993 47.704 198.789 47.832 198.605 48.008C198.405 48.184 198.253 48.372 198.149 48.572C198.045 48.764 197.993 49.016 197.993 49.328V53H196.949V44.432ZM211.828 51.26C211.724 51.86 211.456 52.332 211.024 52.676C210.6 53.02 209.988 53.192 209.188 53.192C208.244 53.192 207.52 52.908 207.016 52.34C206.512 51.764 206.26 50.964 206.26 49.94C206.26 49.404 206.332 48.928 206.476 48.512C206.62 48.096 206.82 47.748 207.076 47.468C207.34 47.188 207.652 46.976 208.012 46.832C208.372 46.68 208.764 46.604 209.188 46.604C209.668 46.604 210.08 46.68 210.424 46.832C210.768 46.984 211.048 47.196 211.264 47.468C211.488 47.732 211.652 48.048 211.756 48.416C211.868 48.784 211.924 49.188 211.924 49.628V50.156H207.316C207.316 50.468 207.356 50.76 207.436 51.032C207.524 51.296 207.644 51.528 207.796 51.728C207.956 51.92 208.152 52.072 208.384 52.184C208.616 52.296 208.884 52.352 209.188 52.352C209.708 52.352 210.088 52.256 210.328 52.064C210.568 51.864 210.732 51.596 210.82 51.26H211.828ZM210.88 49.376C210.88 49.08 210.848 48.812 210.784 48.572C210.72 48.332 210.62 48.128 210.484 47.96C210.348 47.784 210.172 47.648 209.956 47.552C209.74 47.456 209.48 47.408 209.176 47.408C208.624 47.408 208.192 47.576 207.88 47.912C207.576 48.248 207.396 48.736 207.34 49.376H210.88ZM212.588 46.796H213.8L215.648 51.836L217.532 46.796H218.684L216.188 53H215.072L212.588 46.796ZM224.813 51.26C224.709 51.86 224.441 52.332 224.009 52.676C223.585 53.02 222.973 53.192 222.173 53.192C221.229 53.192 220.505 52.908 220.001 52.34C219.497 51.764 219.245 50.964 219.245 49.94C219.245 49.404 219.317 48.928 219.461 48.512C219.605 48.096 219.805 47.748 220.061 47.468C220.325 47.188 220.637 46.976 220.997 46.832C221.357 46.68 221.749 46.604 222.173 46.604C222.653 46.604 223.065 46.68 223.409 46.832C223.753 46.984 224.033 47.196 224.249 47.468C224.473 47.732 224.637 48.048 224.741 48.416C224.853 48.784 224.909 49.188 224.909 49.628V50.156H220.301C220.301 50.468 220.341 50.76 220.421 51.032C220.509 51.296 220.629 51.528 220.781 51.728C220.941 51.92 221.137 52.072 221.369 52.184C221.601 52.296 221.869 52.352 222.173 52.352C222.693 52.352 223.073 52.256 223.313 52.064C223.553 51.864 223.717 51.596 223.805 51.26H224.813ZM223.865 49.376C223.865 49.08 223.833 48.812 223.769 48.572C223.705 48.332 223.605 48.128 223.469 47.96C223.333 47.784 223.157 47.648 222.941 47.552C222.725 47.456 222.465 47.408 222.161 47.408C221.609 47.408 221.177 47.576 220.865 47.912C220.561 48.248 220.381 48.736 220.325 49.376H223.865ZM226.292 46.796H227.324V47.744C227.628 47.336 227.964 47.044 228.332 46.868C228.7 46.692 229.088 46.604 229.496 46.604C230.2 46.604 230.72 46.796 231.056 47.18C231.4 47.564 231.572 48.128 231.572 48.872V53H230.528V49.076C230.528 48.5 230.424 48.096 230.216 47.864C230.008 47.624 229.688 47.504 229.256 47.504C229.024 47.504 228.792 47.544 228.56 47.624C228.336 47.704 228.132 47.832 227.948 48.008C227.748 48.184 227.596 48.372 227.492 48.572C227.388 48.764 227.336 49.016 227.336 49.328V53H226.292V46.796ZM233.496 47.624H232.536V46.796H233.496V45.104H234.54V46.796H236.184V47.624H234.54V51.26C234.54 51.564 234.608 51.808 234.744 51.992C234.88 52.176 235.088 52.268 235.368 52.268C235.544 52.268 235.696 52.256 235.824 52.232C235.96 52.208 236.084 52.176 236.196 52.136L236.376 52.94C236.216 52.996 236.04 53.04 235.848 53.072C235.664 53.112 235.444 53.132 235.188 53.132C234.836 53.132 234.552 53.08 234.336 52.976C234.12 52.872 233.948 52.724 233.82 52.532C233.692 52.34 233.604 52.112 233.556 51.848C233.516 51.584 233.496 51.296 233.496 50.984V47.624ZM237.968 51.188C238.04 51.62 238.22 51.924 238.508 52.1C238.804 52.268 239.204 52.352 239.708 52.352C240.236 52.352 240.608 52.264 240.824 52.088C241.048 51.904 241.16 51.664 241.16 51.368C241.16 51.248 241.144 51.136 241.112 51.032C241.088 50.92 241.036 50.824 240.956 50.744C240.876 50.656 240.764 50.58 240.62 50.516C240.476 50.452 240.288 50.4 240.056 50.36L239.264 50.24C238.912 50.184 238.604 50.112 238.34 50.024C238.076 49.936 237.852 49.824 237.668 49.688C237.484 49.544 237.344 49.372 237.248 49.172C237.16 48.964 237.116 48.716 237.116 48.428C237.116 48.14 237.176 47.884 237.296 47.66C237.424 47.436 237.596 47.248 237.812 47.096C238.036 46.936 238.296 46.816 238.592 46.736C238.896 46.648 239.224 46.604 239.576 46.604C240.024 46.604 240.396 46.648 240.692 46.736C240.996 46.824 241.244 46.944 241.436 47.096C241.628 47.248 241.776 47.428 241.88 47.636C241.984 47.844 242.064 48.064 242.12 48.296L241.172 48.452C241.116 48.284 241.052 48.136 240.98 48.008C240.908 47.88 240.812 47.776 240.692 47.696C240.572 47.608 240.424 47.544 240.248 47.504C240.08 47.456 239.868 47.432 239.612 47.432C239.324 47.432 239.084 47.46 238.892 47.516C238.7 47.564 238.544 47.632 238.424 47.72C238.312 47.808 238.232 47.908 238.184 48.02C238.136 48.124 238.112 48.236 238.112 48.356C238.112 48.484 238.128 48.6 238.16 48.704C238.192 48.8 238.252 48.888 238.34 48.968C238.428 49.04 238.548 49.104 238.7 49.16C238.852 49.216 239.048 49.264 239.288 49.304L240.188 49.448C240.916 49.568 241.436 49.776 241.748 50.072C242.068 50.368 242.228 50.8 242.228 51.368C242.228 51.632 242.176 51.876 242.072 52.1C241.968 52.316 241.812 52.508 241.604 52.676C241.396 52.836 241.136 52.96 240.824 53.048C240.512 53.144 240.148 53.192 239.732 53.192C239.356 53.192 239.004 53.156 238.676 53.084C238.356 53.012 238.072 52.9 237.824 52.748C237.576 52.588 237.376 52.38 237.224 52.124C237.072 51.868 236.984 51.556 236.96 51.188H237.968Z" fill="#1F2124"/>
</svg>
