<svg width="454" height="406" viewBox="0 0 454 406" fill="none" xmlns="http://www.w3.org/2000/svg">
<g clip-path="url(#clip0_763_252)">
<path d="M92.6412 377.776C92.5627 386.738 91.9075 395.687 90.6795 404.565C90.6365 404.876 90.5897 405.188 90.5466 405.5L6.77151 405.031C6.52554 404.721 6.28342 404.408 6.04885 404.091C5.26671 403.041 4.53363 401.962 3.86072 400.846C0.626289 395.467 -0.85447 389.169 0.629396 384.824L0.655986 384.757C0.976294 383.805 1.48102 382.927 2.1412 382.171C5.52439 378.356 12.3648 378.992 18.5724 382.072C13.0046 375.966 8.57122 368.261 8.23436 361.383C7.90406 354.675 11.4052 349.882 15.2026 345.81C15.3272 345.675 15.4518 345.544 15.5764 345.413C15.6369 345.346 15.7009 345.283 15.7612 345.215C18.724 342.112 22.1781 339.052 27.1776 339.422C32.6609 339.829 38.7401 344.43 43.0026 349.792C47.2652 355.151 50.0977 361.238 52.9688 367.178C55.8436 373.115 58.9539 379.204 63.5671 384.278C57.3189 376.36 52.2812 367.351 50.4203 358.589C48.5594 349.827 50.1971 341.412 55.7657 337.285C57.4563 336.071 59.4125 335.28 61.4707 334.979C61.711 334.939 61.955 334.907 62.2029 334.878C67.3578 334.29 73.5127 336.077 78.7494 340.346C84.5164 345.048 88.5148 352.017 90.5042 358.633C92.4934 365.249 92.7054 371.619 92.6412 377.776Z" fill="#6B21A8"/>
<path d="M37.8309 405.205L36.2289 405.196C35.7203 404.877 35.2092 404.562 34.6958 404.251C34.3779 404.05 34.0564 403.857 33.7347 403.659C28.421 400.408 23.0742 397.289 17.6941 394.303C12.3188 391.314 6.91659 388.464 1.48735 385.75C1.34344 385.688 1.22604 385.576 1.15554 385.436C1.08503 385.295 1.06588 385.134 1.10142 384.981C1.10724 384.961 1.11625 384.942 1.12812 384.925C1.20385 384.783 1.37311 384.723 1.62013 384.845C2.28607 385.18 2.95585 385.514 3.62174 385.856C9.06583 388.616 14.4865 391.513 19.8839 394.548C25.2775 397.582 30.6404 400.75 35.9726 404.052C36.0847 404.12 36.197 404.192 36.3091 404.26C36.8176 404.575 37.3224 404.89 37.8309 405.205Z" fill="white"/>
<path d="M58.4852 405.32L57.4946 405.315C57.2712 405.001 57.0516 404.688 56.8282 404.375C51.579 397 46.3308 389.625 41.0838 382.25C32.4911 370.176 23.9011 358.102 15.3136 346.028C15.2627 345.963 15.2248 345.889 15.2021 345.81C15.1287 345.542 15.3247 345.386 15.5759 345.413C15.6818 345.428 15.7833 345.466 15.8735 345.524C15.9638 345.581 16.0407 345.657 16.0993 345.747C20.9168 352.518 25.7331 359.287 30.5481 366.053C39.096 378.066 47.6427 390.078 56.1882 402.089C56.7317 402.852 57.2752 403.618 57.8188 404.38C58.0422 404.694 58.2656 405.007 58.4852 405.32Z" fill="white"/>
<path d="M80.5542 399.557C80.5037 401.229 80.3932 402.875 80.2489 404.506C80.2209 404.818 80.1929 405.13 80.1649 405.442L79.1256 405.436C79.1574 405.124 79.1891 404.812 79.2171 404.5C79.4367 402.144 79.5925 399.762 79.6137 397.315C79.6413 390.53 78.9814 383.76 77.644 377.109C76.2224 369.948 74.1813 362.924 71.5437 356.117C68.7753 348.938 65.4376 341.993 61.5626 335.348C61.4896 335.24 61.4571 335.109 61.4709 334.979C61.5137 334.682 61.9081 334.594 62.203 334.878C62.2612 334.933 62.3114 334.997 62.352 335.067C62.8314 335.893 63.3021 336.721 63.764 337.552C67.4961 344.234 70.6906 351.203 73.317 358.394C75.8187 365.223 77.7217 372.257 79.0043 379.417C80.2056 386.06 80.725 392.808 80.5542 399.557Z" fill="white"/>
<path d="M305.633 13.7371C305.633 11.119 306.408 8.55978 307.859 6.38295C309.311 4.20613 311.375 2.5095 313.789 1.50762C316.203 0.505734 318.86 0.243598 321.422 0.754353C323.985 1.26511 326.339 2.52582 328.187 4.37705C330.035 6.22829 331.293 8.5869 331.803 11.1546C332.313 13.7224 332.051 16.3839 331.051 18.8027C330.051 21.2214 328.358 23.2888 326.185 24.7433C324.012 26.1978 321.458 26.9741 318.845 26.9741C315.342 26.9702 311.984 25.5743 309.507 23.0927C307.03 20.6111 305.637 17.2465 305.633 13.7371ZM330.666 13.7371C330.666 11.3946 329.973 9.10475 328.674 7.15707C327.375 5.20938 325.529 3.69134 323.369 2.79492C321.209 1.8985 318.832 1.66396 316.539 2.12095C314.246 2.57794 312.139 3.70595 310.486 5.36232C308.833 7.01869 307.707 9.12903 307.251 11.4265C306.795 13.7239 307.029 16.1053 307.923 18.2695C308.818 20.4336 310.333 22.2833 312.277 23.5847C314.221 24.8861 316.507 25.5808 318.845 25.5808C321.979 25.5772 324.984 24.3283 327.2 22.1079C329.416 19.8876 330.663 16.8771 330.666 13.7371Z" fill="#D0D0D0"/>
<path d="M318.845 21.4009C323.07 21.4009 326.494 17.9698 326.494 13.7373C326.494 9.50483 323.07 6.07373 318.845 6.07373C314.621 6.07373 311.196 9.50483 311.196 13.7373C311.196 17.9698 314.621 21.4009 318.845 21.4009Z" fill="#6B21A8"/>
<path d="M274.341 26.2775C281.254 26.2775 286.858 20.663 286.858 13.7372C286.858 6.8113 281.254 1.19678 274.341 1.19678C267.428 1.19678 261.824 6.8113 261.824 13.7372C261.824 20.663 267.428 26.2775 274.341 26.2775Z" fill="#D0D0D0"/>
<path d="M229.838 26.2775C236.751 26.2775 242.355 20.663 242.355 13.7372C242.355 6.8113 236.751 1.19678 229.838 1.19678C222.925 1.19678 217.321 6.8113 217.321 13.7372C217.321 20.663 222.925 26.2775 229.838 26.2775Z" fill="#D0D0D0"/>
<path d="M441.23 241.554H122.055C118.921 241.55 115.916 240.302 113.7 238.081C111.484 235.861 110.237 232.85 110.233 229.71V61.8085C110.237 58.6685 111.484 55.658 113.7 53.4377C115.916 51.2173 118.921 49.9684 122.055 49.9648H441.23C444.364 49.9684 447.369 51.2173 449.585 53.4377C451.801 55.658 453.048 58.6685 453.051 61.8085V229.71C453.048 232.85 451.801 235.861 449.585 238.081C447.369 240.302 444.364 241.55 441.23 241.554ZM122.055 51.3582C119.289 51.3614 116.638 52.4634 114.683 54.4225C112.727 56.3816 111.627 59.0379 111.624 61.8085V229.71C111.627 232.481 112.727 235.137 114.683 237.096C116.638 239.055 119.289 240.158 122.055 240.161H441.23C443.995 240.158 446.647 239.055 448.602 237.096C450.558 235.137 451.658 232.481 451.661 229.71V61.8085C451.658 59.0379 450.558 56.3816 448.602 54.4225C446.647 52.4634 443.995 51.3614 441.23 51.3582H122.055Z" fill="#3F3D56"/>
<path d="M230.533 196.966H148.48C145.345 196.962 142.341 195.713 140.124 193.493C137.908 191.273 136.662 188.262 136.658 185.122V102.913C136.662 99.773 137.908 96.7625 140.124 94.5422C142.341 92.3218 145.345 91.0729 148.48 91.0693H230.533C233.667 91.0729 236.672 92.3218 238.888 94.5422C241.105 96.7625 242.351 99.773 242.355 102.913V185.122C242.351 188.262 241.105 191.273 238.888 193.493C236.672 195.713 233.667 196.962 230.533 196.966ZM148.48 92.4627C145.714 92.4658 143.063 93.5679 141.107 95.527C139.152 97.4861 138.052 100.142 138.049 102.913V185.122C138.052 187.893 139.152 190.549 141.107 192.508C143.063 194.467 145.714 195.569 148.48 195.573H230.533C233.299 195.569 235.95 194.467 237.905 192.508C239.861 190.549 240.961 187.893 240.964 185.122V102.913C240.961 100.142 239.861 97.4861 237.905 95.527C235.95 93.5679 233.299 92.4658 230.533 92.4627H148.48Z" fill="#D0D0D0"/>
<path d="M432.878 135.657H275.029C273.553 135.657 272.138 135.07 271.095 134.025C270.052 132.98 269.466 131.562 269.466 130.084C269.466 128.606 270.052 127.188 271.095 126.143C272.138 125.097 273.553 124.51 275.029 124.51H432.878C434.353 124.51 435.768 125.097 436.812 126.143C437.855 127.188 438.441 128.606 438.441 130.084C438.441 131.562 437.855 132.98 436.812 134.025C435.768 135.07 434.353 135.657 432.878 135.657Z" fill="#D0D0D0"/>
<path d="M352.91 111.97H275.029C273.553 111.97 272.138 111.383 271.095 110.338C270.052 109.293 269.466 107.875 269.466 106.397C269.466 104.919 270.052 103.501 271.095 102.456C272.138 101.41 273.553 100.823 275.029 100.823H352.91C354.386 100.823 355.801 101.41 356.844 102.456C357.887 103.501 358.473 104.919 358.473 106.397C358.473 107.875 357.887 109.293 356.844 110.338C355.801 111.383 354.386 111.97 352.91 111.97Z" fill="#D0D0D0"/>
<path d="M432.878 182.335H275.029C273.553 182.335 272.138 181.748 271.095 180.703C270.052 179.658 269.466 178.24 269.466 176.762C269.466 175.284 270.052 173.866 271.095 172.821C272.138 171.776 273.553 171.188 275.029 171.188H432.878C434.353 171.188 435.768 171.776 436.812 172.821C437.855 173.866 438.441 175.284 438.441 176.762C438.441 178.24 437.855 179.658 436.812 180.703C435.768 181.748 434.353 182.335 432.878 182.335Z" fill="#D0D0D0"/>
<path d="M352.91 158.648H275.029C273.553 158.648 272.138 158.061 271.095 157.016C270.052 155.97 269.466 154.553 269.466 153.074C269.466 151.596 270.052 150.179 271.095 149.133C272.138 148.088 273.553 147.501 275.029 147.501H352.91C354.386 147.501 355.801 148.088 356.844 149.133C357.887 150.179 358.473 151.596 358.473 153.074C358.473 154.553 357.887 155.97 356.844 157.016C355.801 158.061 354.386 158.648 352.91 158.648Z" fill="#D0D0D0"/>
<path d="M238.574 193.518C238.482 193.518 238.391 193.5 238.306 193.464C238.221 193.429 238.144 193.376 238.079 193.311L140.993 94.7302C140.929 94.6651 140.878 94.5879 140.844 94.5032C140.81 94.4184 140.792 94.3277 140.793 94.2362C140.794 94.1448 140.812 94.0543 140.848 93.9701C140.883 93.8858 140.935 93.8094 141 93.7451C141.065 93.6809 141.142 93.6301 141.227 93.5956C141.311 93.5612 141.402 93.5438 141.493 93.5444C141.584 93.5451 141.675 93.5637 141.759 93.5993C141.843 93.6349 141.919 93.6867 141.983 93.7518L239.069 192.332C239.165 192.43 239.231 192.554 239.257 192.689C239.283 192.824 239.269 192.963 239.216 193.09C239.163 193.217 239.074 193.325 238.959 193.401C238.845 193.477 238.711 193.518 238.574 193.518Z" fill="#D0D0D0"/>
<path d="M140.438 193.518C140.3 193.518 140.166 193.477 140.052 193.401C139.938 193.325 139.849 193.217 139.796 193.09C139.743 192.963 139.729 192.824 139.755 192.689C139.781 192.554 139.846 192.43 139.943 192.332L237.025 93.7517C237.089 93.6864 237.166 93.6344 237.25 93.5987C237.334 93.5629 237.424 93.5442 237.516 93.5435C237.607 93.5428 237.698 93.5601 237.783 93.5946C237.867 93.629 237.944 93.6798 238.009 93.7441C238.074 93.8084 238.126 93.8849 238.162 93.9693C238.197 94.0537 238.216 94.1443 238.216 94.2358C238.217 94.3274 238.2 94.4182 238.165 94.503C238.131 94.5878 238.08 94.6649 238.015 94.73L140.933 193.31C140.868 193.376 140.791 193.429 140.706 193.464C140.621 193.5 140.53 193.518 140.438 193.518Z" fill="#D0D0D0"/>
<path d="M428.018 221.002H383.515C380.656 221.002 377.915 219.864 375.893 217.839C373.872 215.814 372.736 213.067 372.736 210.203C372.736 207.339 373.872 204.592 375.893 202.567C377.915 200.542 380.656 199.404 383.515 199.404H428.018C430.877 199.404 433.618 200.542 435.64 202.567C437.661 204.592 438.797 207.339 438.797 210.203C438.797 213.067 437.661 215.814 435.64 217.839C433.618 219.864 430.877 221.002 428.018 221.002Z" fill="#6B21A8"/>
<path d="M5.86236 405.432H215.169C215.354 405.432 215.53 405.359 215.661 405.228C215.791 405.097 215.864 404.92 215.864 404.735C215.864 404.55 215.791 404.373 215.661 404.243C215.53 404.112 215.354 404.039 215.169 404.039H5.86236C5.67794 404.039 5.50106 404.112 5.37065 404.243C5.24024 404.373 5.16699 404.55 5.16699 404.735C5.16699 404.92 5.24024 405.097 5.37065 405.228C5.50106 405.359 5.67794 405.432 5.86236 405.432Z" fill="#3F3D56"/>
<path d="M136.542 397.454L145.068 397.453L149.123 364.508L136.541 364.509L136.542 397.454Z" fill="#A0616A"/>
<path d="M161.509 405.384L134.716 405.385L134.715 395.013L151.156 395.013C153.902 395.013 156.535 396.105 158.476 398.05C160.418 399.995 161.509 402.633 161.509 405.384Z" fill="#2F2E41"/>
<path d="M74.6855 387.778L82.4396 391.327L99.7919 363.049L88.3468 357.812L74.6855 387.778Z" fill="#A0616A"/>
<path d="M94.1055 405.385L69.7342 394.233L74.035 384.799L88.9901 391.642C91.4875 392.785 93.4294 394.875 94.3887 397.452C95.348 400.03 95.2461 402.883 94.1055 405.385Z" fill="#2F2E41"/>
<path d="M99.5111 286.371C98.6943 285.756 98.0222 284.968 97.5422 284.064C97.0622 283.159 96.7859 282.161 96.7328 281.138C96.6796 280.115 96.851 279.093 97.2348 278.144C97.6186 277.194 98.2054 276.341 98.954 275.643L88.9326 252.862L101.664 255.023L109.229 276.326C110.315 277.664 110.873 279.354 110.799 281.077C110.724 282.799 110.021 284.435 108.823 285.673C107.625 286.911 106.016 287.666 104.3 287.795C102.583 287.924 100.88 287.417 99.5111 286.371Z" fill="#A0616A"/>
<path d="M133.976 385.988L125.797 314.422C125.731 313.846 125.463 313.313 125.04 312.917C124.617 312.522 124.067 312.29 123.489 312.264C122.911 312.238 122.343 312.419 121.886 312.774C121.429 313.13 121.114 313.637 120.996 314.204L116.942 333.777C116.884 334.054 116.79 334.322 116.66 334.573L92.9256 380.812C92.576 381.492 91.9902 382.021 91.2784 382.299C90.5666 382.576 89.778 382.584 89.0612 382.319L80.8082 379.273C80.4189 379.129 80.062 378.909 79.7582 378.626C79.4545 378.343 79.21 378.002 79.039 377.624C78.8679 377.245 78.7738 376.836 78.762 376.42C78.7502 376.005 78.821 375.591 78.9703 375.203L98.2913 325.005C98.3936 324.74 98.4487 324.458 98.4539 324.174L99.441 271.758C99.4557 270.99 99.7515 270.254 100.272 269.689C100.793 269.125 101.502 268.772 102.266 268.697L153.539 263.686C153.992 263.641 154.45 263.697 154.88 263.848C155.31 263.999 155.702 264.243 156.028 264.562C156.354 264.881 156.607 265.267 156.769 265.694C156.93 266.121 156.997 266.578 156.964 267.033L148.35 385.859C148.29 386.648 147.936 387.386 147.357 387.925C146.779 388.464 146.019 388.764 145.229 388.767H137.085C136.317 388.767 135.575 388.484 135.002 387.972C134.428 387.459 134.063 386.753 133.976 385.988Z" fill="#2F2E41"/>
<path d="M133.03 174.123C142.463 174.123 150.109 166.462 150.109 157.011C150.109 147.561 142.463 139.9 133.03 139.9C123.598 139.9 115.951 147.561 115.951 157.011C115.951 166.462 123.598 174.123 133.03 174.123Z" fill="#A0616A"/>
<path d="M147.831 183.47C147.363 183.247 146.899 183.031 146.438 182.825C140.83 180.297 134.651 179.313 128.537 179.975C122.423 180.636 116.596 182.919 111.656 186.588C102.559 193.376 98.1749 203.596 99.6266 214.627C102.687 237.877 99.1831 269.417 98.8193 272.558C126.895 285.493 151.527 269.23 153.714 267.719L147.831 183.47Z" fill="#6B21A8"/>
<path d="M98.0546 272.259C97.5431 272.177 97.0597 271.969 96.6483 271.654C96.2368 271.339 95.9101 270.926 95.6976 270.453L81.3661 238.639C80.8291 237.448 80.592 236.144 80.6756 234.841C80.7592 233.537 81.161 232.274 81.8457 231.163L99.445 202.552C99.9989 201.521 100.852 200.683 101.89 200.148C102.929 199.613 104.106 199.406 105.265 199.554C106.423 199.702 107.51 200.199 108.381 200.979C109.253 201.758 109.868 202.784 110.145 203.921C110.46 205.216 110.32 206.581 109.749 207.785L96.7301 235.176L105.287 264.192C105.438 264.71 105.454 265.259 105.332 265.786C105.21 266.312 104.956 266.799 104.592 267.198L100.856 271.282C100.564 271.602 100.208 271.858 99.8119 272.033C99.4154 272.208 98.9868 272.299 98.5534 272.299C98.3864 272.298 98.2196 272.285 98.0546 272.259Z" fill="#6B21A8"/>
<path opacity="0.2" d="M137.949 265.61L135.3 212.522L135.987 212.433L147.898 268.588H141.074C140.271 268.589 139.499 268.28 138.917 267.725C138.335 267.171 137.989 266.414 137.949 265.61Z" fill="#1C1B1A"/>
<path d="M147.388 282.55C146.717 281.777 146.223 280.867 145.94 279.883C145.658 278.898 145.595 277.864 145.755 276.852C145.915 275.841 146.294 274.876 146.866 274.028C147.439 273.179 148.19 272.466 149.066 271.94L143.984 247.57L155.99 252.333L158.976 274.745C159.761 276.279 159.957 278.049 159.527 279.718C159.097 281.388 158.07 282.842 156.642 283.804C155.214 284.766 153.483 285.17 151.777 284.938C150.072 284.707 148.51 283.857 147.388 282.55Z" fill="#A0616A"/>
<path d="M144.989 265.987L134.956 198.971L134.946 198.908L136.886 189.969C137.372 187.73 138.655 185.745 140.497 184.385C142.338 183.026 144.61 182.385 146.889 182.583C149.168 182.78 151.297 183.803 152.877 185.46C154.458 187.116 155.382 189.293 155.476 191.583L158.487 264.583C158.517 265.376 158.248 266.15 157.732 266.752C157.216 267.354 156.493 267.738 155.706 267.828L148.429 268.639C148.312 268.652 148.194 268.658 148.076 268.658C147.327 268.659 146.603 268.389 146.037 267.899C145.47 267.408 145.098 266.73 144.989 265.987Z" fill="#6B21A8"/>
<path d="M126.011 172.551C123.688 172.531 121.418 171.853 119.463 170.594C117.509 169.335 115.951 167.548 114.968 165.439C113.385 162.083 112.506 159.411 112.354 157.494C111.945 152.343 114.85 144.25 118.696 139.82C122.916 134.961 129.595 134.283 136.055 133.627C137.819 133.448 139.644 133.263 141.372 132.994C142.853 132.763 144.698 132.476 146.266 133.059C146.719 133.225 147.133 133.483 147.484 133.815C147.834 134.147 148.114 134.547 148.305 134.991C148.366 135.147 148.459 135.289 148.577 135.408C148.696 135.526 148.837 135.619 148.992 135.681C149.127 135.733 149.27 135.756 149.414 135.749C149.558 135.742 149.699 135.706 149.827 135.642C150.09 135.508 150.38 135.438 150.674 135.438C150.968 135.438 151.258 135.508 151.52 135.641C151.752 135.758 151.953 135.928 152.106 136.137C152.26 136.347 152.362 136.59 152.404 136.846C152.431 137.022 152.485 137.192 152.565 137.352C152.7 137.599 152.886 137.815 153.111 137.986C153.336 138.156 153.594 138.277 153.868 138.34C154.288 138.434 154.658 138.678 154.91 139.026C155.162 139.374 155.279 139.803 155.238 140.231C155.134 141.11 155.089 142.058 155.047 142.976C154.885 146.428 154.719 149.997 151.255 149.939C150.369 149.903 149.492 149.747 148.647 149.478C147.393 149.129 146.402 148.852 145.067 149.686C143.014 150.968 142.679 153.647 142.383 156.012L142.331 156.425C141.986 159.129 140.56 162.383 137.676 162.655C136.76 162.685 135.848 162.527 134.996 162.19C134.12 161.801 133.147 161.684 132.204 161.854C130.62 162.307 129.858 164.202 129.923 165.84C129.966 166.511 130.051 167.179 130.18 167.838C130.413 168.883 130.488 169.957 130.401 171.024C130.319 171.674 129.575 172.101 128.059 172.371C127.383 172.491 126.697 172.551 126.011 172.551Z" fill="#2F2E41"/>
</g>
<defs>
<clipPath id="clip0_763_252">
<rect width="453" height="405" fill="white" transform="translate(0.0517578 0.5)"/>
</clipPath>
</defs>
</svg>
