<svg width="453" height="442" viewBox="0 0 453 442" fill="none" xmlns="http://www.w3.org/2000/svg">
<g clip-path="url(#clip0_767_365)">
<rect width="453" height="440.083" transform="translate(0 0.958008)" fill="white"/>
<path d="M174.904 401.792L163.107 412.637L172.483 396.928C165.096 383.553 153.016 371.993 153.016 371.993C153.016 371.993 127.954 395.97 127.954 414.819C127.954 433.667 139.175 440.248 153.016 440.248C166.857 440.248 178.078 433.667 178.078 414.819C178.078 410.623 176.835 406.174 174.904 401.792Z" fill="#E9D5FF"/>
<path d="M160.074 413.224V414.153C160.018 424.952 158.195 433.378 154.616 439.311C154.565 439.399 154.51 439.482 154.459 439.569L154.059 439.325L153.676 439.086C157.647 432.679 159.051 423.623 159.102 414.204C159.107 413.9 159.111 413.592 159.107 413.284C159.093 409.297 158.849 405.263 158.457 401.344C158.43 401.041 158.397 400.733 158.365 400.425C157.822 395.255 157.039 390.315 156.237 386.024C156.182 385.721 156.122 385.417 156.062 385.118C154.676 377.86 153.262 372.603 152.939 371.44C152.903 371.297 152.88 371.219 152.875 371.201L153.313 371.077L153.317 371.072L153.759 370.948C153.764 370.966 153.842 371.228 153.971 371.716C154.464 373.537 155.744 378.481 157.002 385.003C157.057 385.298 157.117 385.601 157.172 385.905C157.826 389.386 158.466 393.277 158.973 397.361C159.102 398.387 159.217 399.399 159.318 400.397C159.355 400.705 159.388 401.013 159.415 401.317C159.839 405.553 160.058 409.522 160.074 413.224Z" fill="white"/>
<path d="M157.002 385.003C156.693 385.044 156.38 385.086 156.062 385.118C155.199 385.207 154.332 385.251 153.465 385.251C149.767 385.256 146.116 384.433 142.779 382.841C142.586 383.085 142.392 383.329 142.194 383.577C145.704 385.288 149.559 386.175 153.465 386.171C154.391 386.171 155.316 386.122 156.237 386.024C156.55 385.992 156.864 385.95 157.172 385.904C159.719 385.54 162.196 384.791 164.518 383.683C164.32 383.43 164.127 383.182 163.938 382.938C161.74 383.964 159.403 384.659 157.002 385.003Z" fill="white"/>
<path d="M159.318 400.397C159.001 400.415 158.683 400.425 158.365 400.425C158.268 400.429 158.167 400.429 158.07 400.429C154.064 400.429 150.117 399.462 146.566 397.609C143.015 395.757 139.965 393.075 137.676 389.791C137.492 390.062 137.308 390.334 137.128 390.61C139.513 393.932 142.657 396.639 146.299 398.507C149.941 400.375 153.976 401.349 158.07 401.349C158.199 401.349 158.328 401.349 158.457 401.344C158.779 401.34 159.097 401.331 159.415 401.317C164.333 401.065 169.074 399.405 173.071 396.533C172.924 396.262 172.776 395.991 172.624 395.719C168.739 398.538 164.115 400.164 159.318 400.397Z" fill="white"/>
<path d="M160.074 413.224C159.751 413.252 159.429 413.27 159.106 413.284C158.761 413.298 158.416 413.307 158.07 413.307C152.687 413.301 147.45 411.554 143.144 408.327C138.838 405.1 135.695 400.567 134.185 395.407C133.978 395.779 133.77 396.147 133.572 396.52C135.274 401.668 138.557 406.15 142.954 409.328C147.352 412.507 152.641 414.221 158.07 414.227C158.416 414.227 158.761 414.222 159.102 414.204C159.429 414.195 159.751 414.176 160.074 414.153C166.586 413.645 172.661 410.684 177.069 405.87C176.972 405.53 176.862 405.194 176.751 404.854C172.493 409.703 166.511 412.706 160.074 413.224Z" fill="white"/>
<path d="M452.344 24.5256H0.655261C0.481784 24.525 0.31563 24.4558 0.193174 24.3331C0.0707192 24.2104 0.00195312 24.0442 0.00195312 23.871C0.00195312 23.6977 0.0707192 23.5316 0.193174 23.4089C0.31563 23.2862 0.481784 23.2169 0.655261 23.2163H452.344C452.518 23.2169 452.684 23.2862 452.806 23.4089C452.929 23.5316 452.997 23.6977 452.997 23.871C452.997 24.0442 452.929 24.2104 452.806 24.3331C452.684 24.4558 452.518 24.525 452.344 24.5256Z" fill="#D0D0D0"/>
<path d="M15.4115 15.3604C19.3942 15.3604 22.6228 12.1363 22.6228 8.15919C22.6228 4.18209 19.3942 0.958008 15.4115 0.958008C11.4288 0.958008 8.2002 4.18209 8.2002 8.15919C8.2002 12.1363 11.4288 15.3604 15.4115 15.3604Z" fill="#1C1B1A"/>
<path d="M40.3226 15.3604C44.3053 15.3604 47.5339 12.1363 47.5339 8.15919C47.5339 4.18209 44.3053 0.958008 40.3226 0.958008C36.3399 0.958008 33.1113 4.18209 33.1113 8.15919C33.1113 12.1363 36.3399 15.3604 40.3226 15.3604Z" fill="#1C1B1A"/>
<path d="M65.2347 15.3604C69.2174 15.3604 72.446 12.1363 72.446 8.15919C72.446 4.18209 69.2174 0.958008 65.2347 0.958008C61.252 0.958008 58.0234 4.18209 58.0234 8.15919C58.0234 12.1363 61.252 15.3604 65.2347 15.3604Z" fill="#1C1B1A"/>
<path d="M437.418 5.36275H419.718C419.371 5.36156 419.038 5.22309 418.794 4.97768C418.549 4.73226 418.411 4.39992 418.411 4.05345C418.411 3.70698 418.549 3.37464 418.794 3.12923C419.038 2.88381 419.371 2.74535 419.718 2.74415H437.418C437.591 2.74355 437.762 2.77698 437.921 2.84251C438.081 2.90804 438.226 3.00439 438.348 3.12603C438.47 3.24767 438.567 3.3922 438.634 3.55135C438.7 3.7105 438.734 3.88113 438.734 4.05345C438.734 4.22577 438.7 4.3964 438.634 4.55555C438.567 4.7147 438.47 4.85923 438.348 4.98087C438.226 5.10251 438.081 5.19886 437.921 5.26439C437.762 5.32992 437.591 5.36335 437.418 5.36275Z" fill="#1C1B1A"/>
<path d="M437.418 10.2724H419.718C419.371 10.2712 419.038 10.1328 418.794 9.88734C418.549 9.64193 418.411 9.30959 418.411 8.96312C418.411 8.61665 418.549 8.28431 418.794 8.03889C419.038 7.79348 419.371 7.65501 419.718 7.65382H437.418C437.591 7.65322 437.762 7.68664 437.921 7.75218C438.081 7.81771 438.226 7.91406 438.348 8.0357C438.47 8.15734 438.567 8.30187 438.634 8.46102C438.7 8.62017 438.734 8.7908 438.734 8.96312C438.734 9.13544 438.7 9.30607 438.634 9.46522C438.567 9.62436 438.47 9.7689 438.348 9.89054C438.226 10.0122 438.081 10.1085 437.921 10.1741C437.762 10.2396 437.591 10.273 437.418 10.2724Z" fill="#1C1B1A"/>
<path d="M437.418 15.1826H419.718C419.371 15.1814 419.038 15.0429 418.794 14.7975C418.549 14.5521 418.411 14.2197 418.411 13.8733C418.411 13.5268 418.549 13.1945 418.794 12.9491C419.038 12.7036 419.371 12.5652 419.718 12.564H437.418C437.591 12.5634 437.762 12.5968 437.921 12.6623C438.081 12.7279 438.226 12.8242 438.348 12.9459C438.47 13.0675 438.567 13.212 438.634 13.3712C438.7 13.5303 438.734 13.701 438.734 13.8733C438.734 14.0456 438.7 14.2162 438.634 14.3754C438.567 14.5345 438.47 14.6791 438.348 14.8007C438.226 14.9223 438.081 15.0187 437.921 15.0842C437.762 15.1497 437.591 15.1832 437.418 15.1826Z" fill="#1C1B1A"/>
<path d="M427.541 54.1313H13.6074V273.132H427.541V54.1313Z" fill="#F0F0F0"/>
<path d="M427.541 95.1247V92.977H346.965V54.1313H344.814V92.977H264.237V54.1313H262.086V92.977H181.51V54.1313H179.359V92.977H98.7824V54.1313H96.6317V92.977H13.6074V95.1247H96.6317V138.039H13.6074V140.187H96.6317V183.101H13.6074V185.249H96.6317V228.156H13.6074V230.303H96.6317V273.132H98.7824V230.303H179.359V273.132H181.51V230.303H262.086V273.132H264.237V230.303H344.814V273.132H346.965V230.303H427.541V228.156H346.965V185.249H427.541V183.101H346.965V140.187H427.541V138.039H346.965V95.1247L427.541 95.1247ZM179.359 228.156H98.7824V185.249H179.359V228.156ZM179.359 183.101H98.7824V140.187H179.359V183.101ZM179.359 138.039H98.7824V95.1247H179.359V138.039ZM262.086 228.156H181.51V185.249H262.086V228.156ZM262.086 183.101H181.51V140.187H262.086V183.101ZM262.086 138.039H181.51V95.1247H262.086V138.039ZM344.814 228.156H264.237V185.249H344.814V228.156ZM344.814 183.101H264.237V140.187H344.814V183.101ZM344.814 138.039H264.237V95.1248H344.814V138.039Z" fill="white"/>
<path d="M142.504 105.561H114.812V132.333H142.504V105.561Z" fill="#D0D0D0"/>
<path d="M397.459 192.25H369.767V219.021H397.459V192.25Z" fill="#D0D0D0"/>
<path d="M151.107 236.765H123.415V263.537H151.107V236.765Z" fill="#D0D0D0"/>
<path d="M159.291 100.594H131.599V127.366H159.291V100.594Z" fill="#6B21A8"/>
<path d="M289.468 211.88L322.33 182.643L332.024 187.44L292.611 228.721L289.468 211.88Z" fill="#FFB6B6"/>
<path d="M326.654 192.692C330.973 192.692 334.474 189.195 334.474 184.882C334.474 180.569 330.973 177.072 326.654 177.072C322.334 177.072 318.833 180.569 318.833 184.882C318.833 189.195 322.334 192.692 326.654 192.692Z" fill="#FFB6B6"/>
<path d="M258.708 431.943H250.932L247.232 401.993L258.708 401.993L258.708 431.943Z" fill="#FFB6B6"/>
<path d="M260.69 439.47L235.618 439.469V439.152C235.618 436.568 236.647 434.089 238.477 432.262C240.307 430.434 242.789 429.407 245.377 429.407L260.691 429.408L260.69 439.47Z" fill="#2F2E41"/>
<path d="M230.553 431.943H222.777L219.078 401.993L230.554 401.993L230.553 431.943Z" fill="#FFB6B6"/>
<path d="M232.536 439.47L207.464 439.469V439.152C207.464 436.568 208.492 434.089 210.322 432.262C212.152 430.434 214.635 429.407 217.223 429.407L232.536 429.408L232.536 439.47Z" fill="#2F2E41"/>
<path d="M265.238 260.74C265.238 260.74 284.79 259.178 278.533 293.541C272.277 327.904 259.317 421.903 259.317 421.903L247.567 423.516L240.626 298.123L235.375 423.516L220.431 421.903L205.801 287.293C205.801 287.293 201.103 276.471 205.798 268.996C210.493 261.521 265.238 260.74 265.238 260.74Z" fill="#2F2E41"/>
<path d="M252.726 175.614L258.154 172.71C258.154 172.71 271.528 171.571 276.986 187.26L291.461 209.092L314.924 188.787L325.09 195.816L295.521 231.057L283.226 232.625L256.636 198.263L252.726 175.614Z" fill="#3F3D56"/>
<path d="M233.028 112.251C210.725 112.251 204.482 136.717 204.482 150.519C204.482 164.321 217.263 162.234 233.028 162.234C239.795 162.234 246.008 162.615 250.9 161.963L253.253 156.225L255.147 160.979C259.162 159.506 261.574 156.511 261.574 150.519C261.574 136.717 256.099 112.251 233.028 112.251Z" fill="#2F2E41"/>
<path d="M232.932 162.211C243.541 162.211 252.141 153.623 252.141 143.029C252.141 132.436 243.541 123.848 232.932 123.848C222.324 123.848 213.724 132.436 213.724 143.029C213.724 153.623 222.324 162.211 232.932 162.211Z" fill="#FFB6B6"/>
<path d="M210.738 141.148H218.336L221.687 131.776L222.357 141.148H225.989L227.944 135.681L228.335 141.148H255.316C255.316 135.762 253.174 130.598 249.361 126.79C245.547 122.982 240.375 120.842 234.982 120.842H231.072C225.679 120.842 220.507 122.982 216.694 126.79C212.881 130.598 210.738 135.762 210.738 141.148Z" fill="#2F2E41"/>
<path d="M339.167 155.263H311.475V182.035H339.167V155.263Z" fill="#6B21A8"/>
<path d="M271.316 253.674C268.366 253.712 259.483 201.075 259.483 201.075L258.153 172.71L248.447 172.384V171.747C248.447 170.466 247.938 169.239 247.031 168.333C246.124 167.428 244.895 166.919 243.613 166.919H225.126C223.898 166.92 222.717 167.388 221.822 168.227C220.926 169.067 220.385 170.216 220.308 171.44L212.696 171.184L199.514 213.008C199.514 213.008 211.661 251.87 205.798 268.996C205.798 268.996 262.919 273.894 273.854 263.022C273.854 263.022 274.265 253.636 271.316 253.674Z" fill="#3F3D56"/>
<path d="M215.968 176.395L212.697 171.184C212.697 171.184 202.052 168.557 197.67 175.6C193.288 182.643 180.407 220.807 180.407 220.807L193.702 225.493L208.79 204.371L215.968 176.395Z" fill="#3F3D56"/>
<path d="M249.23 203.683H221.537V230.455H249.23V203.683Z" fill="#6B21A8"/>
<path d="M200.29 213.359L190.656 212.341C190.048 213.637 189.743 215.055 189.764 216.486C189.785 217.917 190.132 219.325 190.778 220.602C191.424 221.88 192.353 222.994 193.494 223.86C194.635 224.727 195.959 225.323 197.364 225.603L235.485 233.2L231.509 220.971L200.29 213.359Z" fill="#FFB6B6"/>
<path d="M235.6 233.341C239.919 233.341 243.421 229.844 243.421 225.531C243.421 221.218 239.919 217.721 235.6 217.721C231.281 217.721 227.779 221.218 227.779 225.531C227.779 229.844 231.281 233.341 235.6 233.341Z" fill="#FFB6B6"/>
<path d="M225.836 233.579L196.794 226.952C194.69 226.466 192.747 225.445 191.153 223.99C189.559 222.534 188.369 220.692 187.697 218.642L186.523 215.027L194.061 209.104L228.591 218.742L225.836 233.579Z" fill="#3F3D56"/>
<path d="M389.032 441.041H91.0633C90.8559 441.041 90.657 440.959 90.5103 440.813C90.3637 440.666 90.2812 440.468 90.2812 440.26C90.2812 440.053 90.3637 439.855 90.5103 439.708C90.657 439.562 90.8559 439.479 91.0633 439.479H389.032C389.239 439.479 389.438 439.562 389.585 439.708C389.731 439.855 389.814 440.053 389.814 440.26C389.814 440.468 389.731 440.666 389.585 440.813C389.438 440.959 389.239 441.041 389.032 441.041Z" fill="#D0D0D0"/>
</g>
<defs>
<clipPath id="clip0_767_365">
<rect width="453" height="440.083" fill="white" transform="translate(0 0.958008)"/>
</clipPath>
</defs>
</svg>
