<svg width="63" height="372" viewBox="0 0 63 372" fill="none" xmlns="http://www.w3.org/2000/svg">
<path opacity="0.6" fill-rule="evenodd" clip-rule="evenodd" d="M0.708984 319.851C4.98123 311.042 9.35807 302.295 14.1219 293.889C17.2167 288.427 20.3739 283.028 23.5151 277.656C41.9923 246.059 59.9177 215.405 61.3568 178.508C63.5382 122.58 63.5769 61.5088 24.758 21.187C17.3211 13.4622 9.2657 6.40144 0.708984 0.0356445V319.851Z" fill="#6B21A8"/>
<path opacity="0.7" fill-rule="evenodd" clip-rule="evenodd" d="M0.708984 371.188C22.0089 364.985 40.5988 353.798 52.1446 335.276C68.9715 308.283 57.1044 277.63 44.9857 246.327C39.2423 231.492 33.4424 216.51 30.6135 201.703C27.9463 187.743 27.4026 173.057 26.8645 158.525C25.7101 127.347 24.5818 96.8742 2.56652 75.7758C1.95315 75.188 1.33393 74.6081 0.708984 74.0361V371.188Z" fill="#E9D5FF"/>
</svg>
