<svg width="62" height="384" viewBox="0 0 62 384" fill="none" xmlns="http://www.w3.org/2000/svg">
<path opacity="0.6" fill-rule="evenodd" clip-rule="evenodd" d="M61.1377 92.623C39.0212 119.3 18.1947 145.659 11.1166 180.005C-0.180875 234.824 -10.2054 295.067 21.4976 341.193C32.5521 357.277 45.9877 371.526 61.1377 383.64V92.623Z" fill="#6B21A8"/>
<path opacity="0.7" fill-rule="evenodd" clip-rule="evenodd" d="M61.138 0.824219C47.3818 5.17316 35.0467 12.4068 25.3252 23.4533C4.31091 47.3318 11.0059 79.5126 17.8428 112.376C21.083 127.951 24.3551 143.679 24.7247 158.749C25.0732 172.958 23.2083 187.535 21.3628 201.959C17.4035 232.906 13.5336 263.154 31.8025 287.568C39.9603 298.47 49.9364 307.603 61.138 315.048V0.824219Z" fill="#E9D5FF"/>
</svg>
