<svg width="546" height="105" viewBox="0 0 546 105" fill="none" xmlns="http://www.w3.org/2000/svg">
<path d="M50.9648 32.1991C44.0227 36.9489 37.517 34.1782 35.1319 32.1991C14.4273 36.0051 31.6304 77.871 43.2006 95.9875C67.1022 53.8171 61.7738 32.1991 50.9648 32.1991Z" fill="#6B21A8" stroke="#6B21A8" stroke-linejoin="round"/>
<path d="M36.3499 91.116C25.8758 74.7959 21.4303 50.0113 22.8005 41.6381H19.7557C17.3199 47.9712 10.9258 48.0321 8.03322 47.271C-5.24207 57.2579 21.4304 81.8293 36.3499 91.116Z" fill="#6B21A8" stroke="#6B21A8" stroke-linejoin="round"/>
<path d="M49.7815 91.116C60.2556 74.7959 64.701 50.0113 63.3308 41.6381H66.3756C68.8115 47.9712 75.2056 48.0321 78.0981 47.271C91.3734 57.2579 64.701 81.8293 49.7815 91.116Z" fill="#6B21A8" stroke="#6B21A8" stroke-linejoin="round"/>
<circle cx="42.8874" cy="19.946" r="11.8346" fill="#6B21A8"/>
<circle cx="75.7943" cy="35.5628" r="9.63851" fill="#6B21A8"/>
<circle cx="9.98079" cy="35.5628" r="9.63851" fill="#6B21A8"/>
<path d="M133.883 79.0494L113.403 23.0494H124.363L140.203 68.5694L156.123 23.0494H166.923L146.443 79.0494H133.883ZM187.615 80.0094C183.775 80.0094 180.308 79.1294 177.215 77.3694C174.175 75.6094 171.748 73.1828 169.935 70.0894C168.175 66.9428 167.295 63.3161 167.295 59.2094C167.295 55.1028 168.202 51.5028 170.015 48.4094C171.828 45.2628 174.255 42.8094 177.295 41.0494C180.388 39.2894 183.855 38.4094 187.695 38.4094C191.482 38.4094 194.895 39.2894 197.935 41.0494C201.028 42.8094 203.455 45.2628 205.215 48.4094C207.028 51.5028 207.935 55.1028 207.935 59.2094C207.935 63.3161 207.028 66.9428 205.215 70.0894C203.455 73.1828 201.028 75.6094 197.935 77.3694C194.842 79.1294 191.402 80.0094 187.615 80.0094ZM187.615 71.1294C190.282 71.1294 192.602 70.1428 194.575 68.1694C196.548 66.1428 197.535 63.1561 197.535 59.2094C197.535 55.2628 196.548 52.3028 194.575 50.3294C192.602 48.3028 190.308 47.2894 187.695 47.2894C184.975 47.2894 182.628 48.3028 180.655 50.3294C178.735 52.3028 177.775 55.2628 177.775 59.2094C177.775 63.1561 178.735 66.1428 180.655 68.1694C182.628 70.1428 184.948 71.1294 187.615 71.1294ZM217.091 79.0494V21.4494H227.331V79.0494H217.091ZM252.674 80.0094C247.714 80.0094 243.874 78.4628 241.154 75.3694C238.487 72.2761 237.154 67.7428 237.154 61.7694V39.3694H247.314V60.8094C247.314 64.2228 248.007 66.8361 249.394 68.6494C250.78 70.4628 252.967 71.3694 255.954 71.3694C258.78 71.3694 261.1 70.3561 262.914 68.3294C264.78 66.3028 265.714 63.4761 265.714 59.8494V39.3694H275.954V79.0494H266.914L266.114 72.3294C264.887 74.6761 263.1 76.5428 260.754 77.9294C258.46 79.3161 255.767 80.0094 252.674 80.0094ZM286.466 79.0494V39.3694H295.506L296.306 46.0894C297.532 43.7428 299.292 41.8761 301.586 40.4894C303.932 39.1028 306.679 38.4094 309.826 38.4094C314.732 38.4094 318.546 39.9561 321.266 43.0494C323.986 46.1428 325.346 50.6761 325.346 56.6494V79.0494H315.106V57.6094C315.106 54.1961 314.412 51.5828 313.026 49.7694C311.639 47.9561 309.479 47.0494 306.546 47.0494C303.666 47.0494 301.292 48.0628 299.426 50.0894C297.612 52.1161 296.706 54.9428 296.706 58.5694V79.0494H286.466ZM348.418 79.0494V31.2894H332.098V23.0494H375.058V31.2894H358.658V79.0494H348.418ZM378.497 79.0494V39.3694H387.617L388.577 46.8094C390.017 44.2494 391.964 42.2228 394.417 40.7294C396.924 39.1828 399.857 38.4094 403.217 38.4094V49.2094H400.337C398.097 49.2094 396.097 49.5561 394.337 50.2494C392.577 50.9428 391.19 52.1428 390.177 53.8494C389.217 55.5561 388.737 57.9294 388.737 60.9694V79.0494H378.497ZM423.896 80.0094C420.482 80.0094 417.682 79.4761 415.496 78.4094C413.309 77.2894 411.682 75.8228 410.616 74.0094C409.549 72.1961 409.016 70.1961 409.016 68.0094C409.016 64.3294 410.456 61.3428 413.336 59.0494C416.216 56.7561 420.536 55.6094 426.296 55.6094H436.376V54.6494C436.376 51.9294 435.602 49.9294 434.056 48.6494C432.509 47.3694 430.589 46.7294 428.296 46.7294C426.216 46.7294 424.402 47.2361 422.856 48.2494C421.309 49.2094 420.349 50.6494 419.976 52.5694H409.976C410.242 49.6894 411.202 47.1828 412.856 45.0494C414.562 42.9161 416.749 41.2894 419.416 40.1694C422.082 38.9961 425.069 38.4094 428.376 38.4094C434.029 38.4094 438.482 39.8228 441.736 42.6494C444.989 45.4761 446.616 49.4761 446.616 54.6494V79.0494H437.896L436.936 72.6494C435.762 74.7828 434.109 76.5428 431.976 77.9294C429.896 79.3161 427.202 80.0094 423.896 80.0094ZM426.216 72.0094C429.149 72.0094 431.416 71.0494 433.016 69.1294C434.669 67.2094 435.709 64.8361 436.136 62.0094H427.416C424.696 62.0094 422.749 62.5161 421.576 63.5294C420.402 64.4894 419.816 65.6894 419.816 67.1294C419.816 68.6761 420.402 69.8761 421.576 70.7294C422.749 71.5828 424.296 72.0094 426.216 72.0094ZM475.828 80.0094C471.774 80.0094 468.201 79.1294 465.108 77.3694C462.014 75.6094 459.561 73.1561 457.748 70.0094C455.988 66.8628 455.108 63.2628 455.108 59.2094C455.108 55.1561 455.988 51.5561 457.748 48.4094C459.561 45.2628 462.014 42.8094 465.108 41.0494C468.201 39.2894 471.774 38.4094 475.828 38.4094C480.894 38.4094 485.161 39.7428 488.628 42.4094C492.094 45.0228 494.308 48.6494 495.267 53.2894H484.468C483.934 51.3694 482.868 49.8761 481.268 48.8094C479.721 47.6894 477.881 47.1294 475.748 47.1294C472.921 47.1294 470.521 48.1961 468.548 50.3294C466.574 52.4628 465.588 55.4228 465.588 59.2094C465.588 62.9961 466.574 65.9561 468.548 68.0894C470.521 70.2228 472.921 71.2894 475.748 71.2894C477.881 71.2894 479.721 70.7561 481.268 69.6894C482.868 68.6228 483.934 67.1028 484.468 65.1294H495.267C494.308 69.6094 492.094 73.2094 488.628 75.9294C485.161 78.6494 480.894 80.0094 475.828 80.0094ZM504.356 79.0494V21.4494H514.596V55.4494L528.676 39.3694H540.836L524.596 57.4494L543.476 79.0494H530.676L514.596 59.1294V79.0494H504.356Z" fill="#6B21A8"/>
<path d="M133.883 79.0494L132.709 79.4788L133.009 80.2994H133.883V79.0494ZM113.403 23.0494V21.7994H111.615L112.229 23.4788L113.403 23.0494ZM124.363 23.0494L125.544 22.6386L125.252 21.7994H124.363V23.0494ZM140.203 68.5694L139.023 68.9802L140.2 72.3643L141.383 68.9821L140.203 68.5694ZM156.123 23.0494V21.7994H155.236L154.943 22.6368L156.123 23.0494ZM166.923 23.0494L168.097 23.4788L168.711 21.7994H166.923V23.0494ZM146.443 79.0494V80.2994H147.317L147.617 79.4788L146.443 79.0494ZM135.057 78.6201L114.577 22.6201L112.229 23.4788L132.709 79.4788L135.057 78.6201ZM113.403 24.2994H124.363V21.7994H113.403V24.2994ZM123.183 23.4602L139.023 68.9802L141.384 68.1586L125.544 22.6386L123.183 23.4602ZM141.383 68.9821L157.303 23.4621L154.943 22.6368L139.023 68.1568L141.383 68.9821ZM156.123 24.2994H166.923V21.7994H156.123V24.2994ZM165.749 22.6201L145.269 78.6201L147.617 79.4788L168.097 23.4788L165.749 22.6201ZM146.443 77.7994H133.883V80.2994H146.443V77.7994ZM177.215 77.3694L176.589 78.4513L176.597 78.4559L177.215 77.3694ZM169.935 70.0894L168.844 70.6996L168.85 70.7107L168.857 70.7216L169.935 70.0894ZM170.015 48.4094L171.093 49.0416L171.098 49.0336L170.015 48.4094ZM177.295 41.0494L176.677 39.963L176.669 39.9677L177.295 41.0494ZM197.935 41.0494L197.309 42.1312L197.317 42.1359L197.935 41.0494ZM205.215 48.4094L204.124 49.0196L204.13 49.0307L204.137 49.0416L205.215 48.4094ZM205.215 70.0894L204.132 69.4653L204.129 69.4713L205.215 70.0894ZM197.935 77.3694L197.317 76.283L197.317 76.283L197.935 77.3694ZM194.575 68.1694L195.459 69.0533L195.465 69.0474L195.471 69.0415L194.575 68.1694ZM194.575 50.3294L193.679 51.2015L193.685 51.2074L193.691 51.2133L194.575 50.3294ZM180.655 50.3294L179.759 49.4574L179.759 49.4577L180.655 50.3294ZM180.655 68.1694L179.748 69.0291L179.759 69.0414L179.771 69.0533L180.655 68.1694ZM187.615 78.7594C183.974 78.7594 180.723 77.9274 177.833 76.283L176.597 78.4559C179.893 80.3315 183.576 81.2594 187.615 81.2594V78.7594ZM177.841 76.2877C174.992 74.6383 172.72 72.3682 171.013 69.4573L168.857 70.7216C170.777 73.9973 173.358 76.5806 176.589 78.4512L177.841 76.2877ZM171.026 69.4792C169.384 66.5437 168.545 63.1326 168.545 59.2094H166.045C166.045 63.4996 166.966 67.3419 168.844 70.6996L171.026 69.4792ZM168.545 59.2094C168.545 55.2922 169.408 51.9167 171.093 49.0416L168.937 47.7773C166.995 51.0888 166.045 54.9134 166.045 59.2094H168.545ZM171.098 49.0336C172.806 46.0701 175.078 43.7775 177.921 42.1312L176.669 39.9677C173.432 41.8413 170.851 44.4554 168.932 47.7853L171.098 49.0336ZM177.913 42.1359C180.803 40.4915 184.054 39.6594 187.695 39.6594V37.1594C183.656 37.1594 179.973 38.0874 176.677 39.963L177.913 42.1359ZM187.695 39.6594C191.279 39.6594 194.474 40.49 197.309 42.1312L198.561 39.9677C195.316 38.0889 191.684 37.1594 187.695 37.1594V39.6594ZM197.317 42.1359C200.209 43.7817 202.474 46.0691 204.124 49.0196L206.306 47.7992C204.436 44.4564 201.847 41.8372 198.553 39.963L197.317 42.1359ZM204.137 49.0416C205.822 51.9167 206.685 55.2922 206.685 59.2094H209.185C209.185 54.9134 208.235 51.0888 206.293 47.7773L204.137 49.0416ZM206.685 59.2094C206.685 63.1262 205.822 66.5322 204.132 69.4653L206.298 70.7136C208.234 67.3533 209.185 63.506 209.185 59.2094H206.685ZM204.129 69.4713C202.48 72.3693 200.215 74.6341 197.317 76.283L198.553 78.4559C201.842 76.5847 204.43 73.9963 206.301 70.7076L204.129 69.4713ZM197.317 76.283C194.424 77.9289 191.199 78.7594 187.615 78.7594V81.2594C191.604 81.2594 195.259 80.33 198.553 78.4559L197.317 76.283ZM187.615 72.3794C190.63 72.3794 193.263 71.2489 195.459 69.0533L193.691 67.2856C191.94 69.0366 189.933 69.8794 187.615 69.8794V72.3794ZM195.471 69.0415C197.748 66.7023 198.785 63.3516 198.785 59.2094H196.285C196.285 62.9607 195.348 65.5833 193.679 67.2974L195.471 69.0415ZM198.785 59.2094C198.785 55.0701 197.749 51.736 195.459 49.4456L193.691 51.2133C195.347 52.8696 196.285 55.4555 196.285 59.2094H198.785ZM195.471 49.4574C193.283 47.2112 190.675 46.0394 187.695 46.0394V48.5394C189.941 48.5394 191.92 49.3944 193.679 51.2015L195.471 49.4574ZM187.695 46.0394C184.623 46.0394 181.958 47.1999 179.759 49.4574L181.551 51.2015C183.299 49.4056 185.327 48.5394 187.695 48.5394V46.0394ZM179.759 49.4577C177.53 51.7492 176.525 55.0785 176.525 59.2094H179.025C179.025 55.447 179.94 52.8563 181.551 51.2011L179.759 49.4577ZM176.525 59.2094C176.525 63.3432 177.531 66.6891 179.748 69.0291L181.562 67.3098C179.939 65.5964 179.025 62.969 179.025 59.2094H176.525ZM179.771 69.0533C181.967 71.2489 184.6 72.3794 187.615 72.3794V69.8794C185.297 69.8794 183.29 69.0366 181.539 67.2856L179.771 69.0533ZM217.091 79.0494H215.841V80.2994H217.091V79.0494ZM217.091 21.4494V20.1994H215.841V21.4494H217.091ZM227.331 21.4494H228.581V20.1994H227.331V21.4494ZM227.331 79.0494V80.2994H228.581V79.0494H227.331ZM218.341 79.0494V21.4494H215.841V79.0494H218.341ZM217.091 22.6994H227.331V20.1994H217.091V22.6994ZM226.081 21.4494V79.0494H228.581V21.4494H226.081ZM227.331 77.7994H217.091V80.2994H227.331V77.7994ZM241.154 75.3694L240.207 76.1857L240.215 76.1949L241.154 75.3694ZM237.154 39.3694V38.1194H235.904V39.3694H237.154ZM247.314 39.3694H248.564V38.1194H247.314V39.3694ZM249.394 68.6494L248.401 69.4088L248.401 69.4088L249.394 68.6494ZM262.914 68.3294L261.994 67.4826L261.988 67.4892L261.982 67.4959L262.914 68.3294ZM265.714 39.3694V38.1194H264.464V39.3694H265.714ZM275.954 39.3694H277.204V38.1194H275.954V39.3694ZM275.954 79.0494V80.2994H277.204V79.0494H275.954ZM266.914 79.0494L265.673 79.1972L265.804 80.2994H266.914V79.0494ZM266.114 72.3294L267.355 72.1817L266.877 68.1702L265.006 71.7504L266.114 72.3294ZM260.754 77.9294L260.118 76.8532L260.107 76.8598L260.754 77.9294ZM252.674 78.7594C247.993 78.7594 244.527 77.3126 242.092 74.544L240.215 76.1949C243.221 79.6129 247.434 81.2594 252.674 81.2594V78.7594ZM242.101 74.5533C239.703 71.7718 238.404 67.5786 238.404 61.7694H235.904C235.904 67.907 237.271 72.7804 240.207 76.1856L242.101 74.5533ZM238.404 61.7694V39.3694H235.904V61.7694H238.404ZM237.154 40.6194H247.314V38.1194H237.154V40.6194ZM246.064 39.3694V60.8094H248.564V39.3694H246.064ZM246.064 60.8094C246.064 64.3676 246.783 67.293 248.401 69.4088L250.387 67.8901C249.231 66.3792 248.564 64.078 248.564 60.8094H246.064ZM248.401 69.4088C250.093 71.6221 252.708 72.6194 255.954 72.6194V70.1194C253.226 70.1194 251.467 69.3034 250.387 67.8901L248.401 69.4088ZM255.954 72.6194C259.12 72.6194 261.784 71.4663 263.845 69.1629L261.982 67.4959C260.416 69.2459 258.441 70.1194 255.954 70.1194V72.6194ZM263.833 69.1763C265.973 66.8536 266.964 63.6882 266.964 59.8494H264.464C264.464 63.2641 263.588 65.752 261.994 67.4826L263.833 69.1763ZM266.964 59.8494V39.3694H264.464V59.8494H266.964ZM265.714 40.6194H275.954V38.1194H265.714V40.6194ZM274.704 39.3694V79.0494H277.204V39.3694H274.704ZM275.954 77.7994H266.914V80.2994H275.954V77.7994ZM268.155 78.9017L267.355 72.1817L264.873 72.4772L265.673 79.1972L268.155 78.9017ZM265.006 71.7504C263.89 73.8843 262.27 75.5814 260.118 76.8533L261.39 79.0056C263.931 77.5041 265.884 75.4679 267.222 72.9085L265.006 71.7504ZM260.107 76.8598C258.037 78.1112 255.575 78.7594 252.674 78.7594V81.2594C255.959 81.2594 258.884 80.521 261.401 78.9991L260.107 76.8598ZM286.466 79.0494H285.216V80.2994H286.466V79.0494ZM286.466 39.3694V38.1194H285.216V39.3694H286.466ZM295.506 39.3694L296.747 39.2217L296.616 38.1194H295.506V39.3694ZM296.306 46.0894L295.064 46.2372L295.542 50.2487L297.413 46.6685L296.306 46.0894ZM301.586 40.4894L300.95 39.4132L300.939 39.4198L301.586 40.4894ZM321.266 43.0494L320.327 43.8749L320.327 43.8749L321.266 43.0494ZM325.346 79.0494V80.2994H326.596V79.0494H325.346ZM315.106 79.0494H313.856V80.2994H315.106V79.0494ZM313.026 49.7694L314.019 49.0101L314.019 49.0101L313.026 49.7694ZM299.426 50.0894L298.506 49.2426L298.5 49.2492L298.494 49.2559L299.426 50.0894ZM296.706 79.0494V80.2994H297.956V79.0494H296.706ZM287.716 79.0494V39.3694H285.216V79.0494H287.716ZM286.466 40.6194H295.506V38.1194H286.466V40.6194ZM294.264 39.5172L295.064 46.2372L297.547 45.9417L296.747 39.2217L294.264 39.5172ZM297.413 46.6685C298.533 44.527 300.132 42.829 302.232 41.5591L300.939 39.4198C298.452 40.9232 296.532 42.9585 295.198 45.5104L297.413 46.6685ZM302.222 41.5656C304.348 40.3093 306.868 39.6594 309.826 39.6594V37.1594C306.49 37.1594 303.517 37.8962 300.95 39.4133L302.222 41.5656ZM309.826 39.6594C314.448 39.6594 317.89 41.1032 320.327 43.8749L322.204 42.224C319.201 38.809 315.016 37.1594 309.826 37.1594V39.6594ZM320.327 43.8749C322.772 46.656 324.096 50.8455 324.096 56.6494H326.596C326.596 50.5067 325.199 45.6295 322.204 42.224L320.327 43.8749ZM324.096 56.6494V79.0494H326.596V56.6494H324.096ZM325.346 77.7994H315.106V80.2994H325.346V77.7994ZM316.356 79.0494V57.6094H313.856V79.0494H316.356ZM316.356 57.6094C316.356 54.0513 315.637 51.1259 314.019 49.0101L312.033 50.5287C313.188 52.0396 313.856 54.3409 313.856 57.6094H316.356ZM314.019 49.0101C312.33 46.8023 309.747 45.7994 306.546 45.7994V48.2994C309.211 48.2994 310.948 49.1099 312.033 50.5287L314.019 49.0101ZM306.546 45.7994C303.334 45.7994 300.621 46.9461 298.506 49.2426L300.345 50.9363C301.963 49.1794 303.997 48.2994 306.546 48.2994V45.7994ZM298.494 49.2559C296.415 51.5791 295.456 54.7395 295.456 58.5694H297.956C297.956 55.1461 298.809 52.6531 300.357 50.9229L298.494 49.2559ZM295.456 58.5694V79.0494H297.956V58.5694H295.456ZM296.706 77.7994H286.466V80.2994H296.706V77.7994ZM348.418 79.0494H347.168V80.2994H348.418V79.0494ZM348.418 31.2894H349.668V30.0394H348.418V31.2894ZM332.098 31.2894H330.848V32.5394H332.098V31.2894ZM332.098 23.0494V21.7994H330.848V23.0494H332.098ZM375.058 23.0494H376.308V21.7994H375.058V23.0494ZM375.058 31.2894V32.5394H376.308V31.2894H375.058ZM358.658 31.2894V30.0394H357.408V31.2894H358.658ZM358.658 79.0494V80.2994H359.908V79.0494H358.658ZM349.668 79.0494V31.2894H347.168V79.0494H349.668ZM348.418 30.0394H332.098V32.5394H348.418V30.0394ZM333.348 31.2894V23.0494H330.848V31.2894H333.348ZM332.098 24.2994H375.058V21.7994H332.098V24.2994ZM373.808 23.0494V31.2894H376.308V23.0494H373.808ZM375.058 30.0394H358.658V32.5394H375.058V30.0394ZM357.408 31.2894V79.0494H359.908V31.2894H357.408ZM358.658 77.7994H348.418V80.2994H358.658V77.7994ZM378.497 79.0494H377.247V80.2994H378.497V79.0494ZM378.497 39.3694V38.1194H377.247V39.3694H378.497ZM387.617 39.3694L388.857 39.2095L388.716 38.1194H387.617V39.3694ZM388.577 46.8094L387.337 46.9694L387.819 50.7059L389.666 47.4223L388.577 46.8094ZM394.417 40.7294L395.067 41.7972L395.073 41.7932L394.417 40.7294ZM403.217 38.4094H404.467V37.1594H403.217V38.4094ZM403.217 49.2094V50.4594H404.467V49.2094H403.217ZM394.337 50.2494L394.795 51.4124L394.795 51.4124L394.337 50.2494ZM390.177 53.8494L389.102 53.2113L389.095 53.2239L389.087 53.2366L390.177 53.8494ZM388.737 79.0494V80.2994H389.987V79.0494H388.737ZM379.747 79.0494V39.3694H377.247V79.0494H379.747ZM378.497 40.6194H387.617V38.1194H378.497V40.6194ZM386.377 39.5294L387.337 46.9694L389.817 46.6495L388.857 39.2095L386.377 39.5294ZM389.666 47.4223C391.004 45.0447 392.801 43.1765 395.067 41.7972L393.767 39.6617C391.126 41.2691 389.03 43.4542 387.487 46.1966L389.666 47.4223ZM395.073 41.7932C397.356 40.3847 400.055 39.6594 403.217 39.6594V37.1594C399.658 37.1594 396.491 37.9808 393.76 39.6656L395.073 41.7932ZM401.967 38.4094V49.2094H404.467V38.4094H401.967ZM403.217 47.9594H400.337V50.4594H403.217V47.9594ZM400.337 47.9594C397.968 47.9594 395.809 48.3261 393.879 49.0864L394.795 51.4124C396.385 50.7861 398.225 50.4594 400.337 50.4594V47.9594ZM393.879 49.0864C391.847 49.8867 390.25 51.2787 389.102 53.2113L391.252 54.4876C392.131 53.0069 393.306 51.9989 394.795 51.4124L393.879 49.0864ZM389.087 53.2366C387.98 55.2062 387.487 57.8228 387.487 60.9694H389.987C389.987 58.036 390.454 55.906 391.266 54.4623L389.087 53.2366ZM387.487 60.9694V79.0494H389.987V60.9694H387.487ZM388.737 77.7994H378.497V80.2994H388.737V77.7994ZM415.496 78.4094L414.926 79.522L414.937 79.5276L414.948 79.5329L415.496 78.4094ZM410.616 74.0094L409.538 74.6432L409.538 74.6432L410.616 74.0094ZM413.336 59.0494L414.114 60.0273L414.114 60.0273L413.336 59.0494ZM436.376 55.6094V56.8594H437.626V55.6094H436.376ZM434.056 48.6494L434.853 47.6864L434.853 47.6864L434.056 48.6494ZM422.856 48.2494L423.515 49.3115L423.528 49.3034L423.541 49.295L422.856 48.2494ZM419.976 52.5694V53.8194H421.006L421.203 52.808L419.976 52.5694ZM409.976 52.5694L408.731 52.4542L408.605 53.8194H409.976V52.5694ZM412.856 45.0494L411.88 44.2686L411.874 44.2761L411.868 44.2837L412.856 45.0494ZM419.416 40.1694L419.9 41.3219L419.909 41.3178L419.919 41.3136L419.416 40.1694ZM441.736 42.6494L440.916 43.593L440.916 43.593L441.736 42.6494ZM446.616 79.0494V80.2994H447.866V79.0494H446.616ZM437.896 79.0494L436.659 79.2349L436.819 80.2994H437.896V79.0494ZM436.936 72.6494L438.172 72.464L437.623 68.8058L435.84 72.047L436.936 72.6494ZM431.976 77.9294L431.294 76.8814L431.288 76.8853L431.282 76.8894L431.976 77.9294ZM433.016 69.1294L432.068 68.3138L432.062 68.3214L432.055 68.3292L433.016 69.1294ZM436.136 62.0094L437.372 62.196L437.588 60.7594H436.136V62.0094ZM421.576 63.5294L422.367 64.4969L422.38 64.4863L422.393 64.4755L421.576 63.5294ZM421.576 70.7294L422.311 69.7185L422.311 69.7185L421.576 70.7294ZM423.896 78.7594C420.6 78.7594 418.005 78.2428 416.044 77.286L414.948 79.5329C417.359 80.7094 420.364 81.2594 423.896 81.2594V78.7594ZM416.065 77.2969C414.054 76.2666 412.62 74.9521 411.693 73.3757L409.538 74.6432C410.744 76.6934 412.564 78.3123 414.926 79.522L416.065 77.2969ZM411.693 73.3757C410.744 71.7622 410.266 69.9824 410.266 68.0094H407.766C407.766 70.4098 408.354 72.63 409.538 74.6432L411.693 73.3757ZM410.266 68.0094C410.266 64.7103 411.532 62.0836 414.114 60.0273L412.557 58.0716C409.379 60.602 407.766 63.9485 407.766 68.0094H410.266ZM414.114 60.0273C416.679 57.9853 420.668 56.8594 426.296 56.8594V54.3594C420.403 54.3594 415.753 55.5269 412.557 58.0716L414.114 60.0273ZM426.296 56.8594H436.376V54.3594H426.296V56.8594ZM437.626 55.6094V54.6494H435.126V55.6094H437.626ZM437.626 54.6494C437.626 51.697 436.779 49.2807 434.853 47.6864L433.259 49.6124C434.426 50.5782 435.126 52.1619 435.126 54.6494H437.626ZM434.853 47.6864C433.05 46.1948 430.836 45.4794 428.296 45.4794V47.9794C430.342 47.9794 431.968 48.5441 433.259 49.6124L434.853 47.6864ZM428.296 45.4794C426.004 45.4794 423.946 46.0409 422.171 47.2039L423.541 49.295C424.859 48.4313 426.428 47.9794 428.296 47.9794V45.4794ZM422.196 47.1874C420.33 48.3456 419.183 50.0978 418.749 52.3308L421.203 52.808C421.515 51.2011 422.288 50.0732 423.515 49.3115L422.196 47.1874ZM419.976 51.3194H409.976V53.8194H419.976V51.3194ZM411.22 52.6847C411.467 50.0238 412.347 47.7469 413.844 45.8152L411.868 44.2837C410.058 46.6186 409.018 49.3551 408.731 52.4542L411.22 52.6847ZM413.832 45.8303C415.4 43.8696 417.414 42.366 419.9 41.3219L418.932 39.017C416.084 40.2129 413.724 41.9626 411.88 44.2686L413.832 45.8303ZM419.919 41.3136C422.407 40.2189 425.219 39.6594 428.376 39.6594V37.1594C424.919 37.1594 421.758 37.7733 418.912 39.0253L419.919 41.3136ZM428.376 39.6594C433.823 39.6594 437.953 41.0187 440.916 43.593L442.555 41.7058C439.012 38.6268 434.235 37.1594 428.376 37.1594V39.6594ZM440.916 43.593C443.841 46.1347 445.366 49.7587 445.366 54.6494H447.866C447.866 49.1936 446.137 44.8175 442.555 41.7058L440.916 43.593ZM445.366 54.6494V79.0494H447.866V54.6494H445.366ZM446.616 77.7994H437.896V80.2994H446.616V77.7994ZM439.132 78.864L438.172 72.464L435.699 72.8349L436.659 79.2349L439.132 78.864ZM435.84 72.047C434.771 73.9918 433.263 75.6017 431.294 76.8814L432.657 78.9775C434.955 77.4839 436.754 75.5738 438.031 73.2518L435.84 72.047ZM431.282 76.8894C429.464 78.1014 427.034 78.7594 423.896 78.7594V81.2594C427.371 81.2594 430.327 80.5308 432.669 78.9695L431.282 76.8894ZM426.216 73.2594C429.448 73.2594 432.096 72.1854 433.976 69.9297L432.055 68.3292C430.735 69.9135 428.85 70.7594 426.216 70.7594V73.2594ZM433.963 69.9451C435.789 67.8246 436.914 65.2247 437.372 62.196L434.9 61.8229C434.503 64.4475 433.549 66.5942 432.068 68.3138L433.963 69.9451ZM436.136 60.7594H427.416V63.2594H436.136V60.7594ZM427.416 60.7594C424.601 60.7594 422.277 61.2723 420.759 62.5834L422.393 64.4755C423.221 63.76 424.791 63.2594 427.416 63.2594V60.7594ZM420.784 62.562C419.338 63.745 418.566 65.2923 418.566 67.1294H421.066C421.066 66.0865 421.466 65.2339 422.367 64.4969L420.784 62.562ZM418.566 67.1294C418.566 69.0451 419.319 70.6342 420.84 71.7404L422.311 69.7185C421.485 69.118 421.066 68.3071 421.066 67.1294H418.566ZM420.84 71.7404C422.287 72.7924 424.116 73.2594 426.216 73.2594V70.7594C424.475 70.7594 423.211 70.3731 422.311 69.7185L420.84 71.7404ZM465.108 77.3694L465.726 76.283L465.726 76.283L465.108 77.3694ZM457.748 70.0094L456.657 70.6196L456.66 70.6266L456.664 70.6336L457.748 70.0094ZM457.748 48.4094L456.664 47.7853L456.66 47.7923L456.657 47.7992L457.748 48.4094ZM465.108 41.0494L465.726 42.1359L465.726 42.1359L465.108 41.0494ZM488.628 42.4094L487.865 43.4003L487.875 43.4076L488.628 42.4094ZM495.267 53.2894V54.5394H496.803L496.492 53.0362L495.267 53.2894ZM484.468 53.2894L483.263 53.624L483.517 54.5394H484.468V53.2894ZM481.268 48.8094L480.534 49.8219L480.554 49.8361L480.574 49.8495L481.268 48.8094ZM468.548 50.3294L467.63 49.4806L467.63 49.4806L468.548 50.3294ZM468.548 68.0894L469.465 67.2406L469.465 67.2406L468.548 68.0894ZM481.268 69.6894L480.574 68.6494L480.566 68.6548L480.558 68.6604L481.268 69.6894ZM484.468 65.1294V63.8794H483.51L483.261 64.8033L484.468 65.1294ZM495.267 65.1294L496.49 65.3913L496.814 63.8794H495.267V65.1294ZM488.628 75.9294L487.856 74.946L487.856 74.946L488.628 75.9294ZM475.828 78.7594C471.96 78.7594 468.606 77.9216 465.726 76.283L464.489 78.4559C467.796 80.3373 471.588 81.2594 475.828 81.2594V78.7594ZM465.726 76.283C462.83 74.6353 460.535 72.3434 458.831 69.3853L456.664 70.6336C458.586 73.9688 461.199 76.5836 464.489 78.4559L465.726 76.283ZM458.838 69.3992C457.195 66.4613 456.358 63.0761 456.358 59.2094H453.858C453.858 63.4494 454.78 67.2643 456.657 70.6196L458.838 69.3992ZM456.358 59.2094C456.358 55.3427 457.195 51.9576 458.838 49.0196L456.657 47.7992C454.78 51.1546 453.858 54.9695 453.858 59.2094H456.358ZM458.831 49.0336C460.535 46.0755 462.83 43.7836 465.726 42.1359L464.489 39.963C461.199 41.8353 458.586 44.4501 456.664 47.7853L458.831 49.0336ZM465.726 42.1359C468.606 40.4972 471.96 39.6594 475.828 39.6594V37.1594C471.588 37.1594 467.796 38.0816 464.489 39.963L465.726 42.1359ZM475.828 39.6594C480.664 39.6594 484.651 40.9274 487.865 43.4002L489.39 41.4187C485.671 38.5581 481.124 37.1594 475.828 37.1594V39.6594ZM487.875 43.4076C491.076 45.8209 493.139 49.1707 494.043 53.5427L496.492 53.0362C495.476 48.1282 493.112 44.2247 489.38 41.4113L487.875 43.4076ZM495.267 52.0394H484.468V54.5394H495.267V52.0394ZM485.672 52.9549C485.062 50.7575 483.82 49.0088 481.961 47.7694L480.574 49.8495C481.915 50.7434 482.807 51.9814 483.263 53.624L485.672 52.9549ZM482.001 47.797C480.216 46.5047 478.112 45.8794 475.748 45.8794V48.3794C477.65 48.3794 479.226 48.8742 480.534 49.8219L482.001 47.797ZM475.748 45.8794C472.561 45.8794 469.832 47.0997 467.63 49.4806L469.465 51.1782C471.209 49.2925 473.28 48.3794 475.748 48.3794V45.8794ZM467.63 49.4806C465.384 51.9081 464.338 55.2062 464.338 59.2094H466.838C466.838 55.6393 467.764 53.0174 469.465 51.1782L467.63 49.4806ZM464.338 59.2094C464.338 63.2126 465.384 66.5107 467.63 68.9382L469.465 67.2406C467.764 65.4015 466.838 62.7796 466.838 59.2094H464.338ZM467.63 68.9382C469.832 71.3192 472.561 72.5394 475.748 72.5394V70.0394C473.28 70.0394 471.209 69.1263 469.465 67.2406L467.63 68.9382ZM475.748 72.5394C478.099 72.5394 480.194 71.948 481.977 70.7185L480.558 68.6604C479.247 69.5642 477.663 70.0394 475.748 70.0394V72.5394ZM481.961 70.7295C483.83 69.4837 485.067 67.7012 485.674 65.4556L483.261 64.8033C482.801 66.5044 481.905 67.7618 480.574 68.6494L481.961 70.7295ZM484.468 66.3794H495.267V63.8794H484.468V66.3794ZM494.045 64.8675C493.144 69.0741 491.083 72.4141 487.856 74.946L489.399 76.9129C493.105 74.0048 495.471 70.1448 496.49 65.3913L494.045 64.8675ZM487.856 74.946C484.642 77.468 480.658 78.7594 475.828 78.7594V81.2594C481.13 81.2594 485.68 79.8309 489.399 76.9129L487.856 74.946ZM504.356 79.0494H503.106V80.2994H504.356V79.0494ZM504.356 21.4494V20.1994H503.106V21.4494H504.356ZM514.596 21.4494H515.846V20.1994H514.596V21.4494ZM514.596 55.4494H513.346V58.7745L515.537 56.2729L514.596 55.4494ZM528.676 39.3694V38.1194H528.109L527.736 38.546L528.676 39.3694ZM540.836 39.3694L541.766 40.2047L543.639 38.1194H540.836V39.3694ZM524.596 57.4494L523.666 56.6141L522.926 57.4381L523.655 58.2721L524.596 57.4494ZM543.476 79.0494V80.2994H546.229L544.417 78.2268L543.476 79.0494ZM530.676 79.0494L529.704 79.8346L530.079 80.2994H530.676V79.0494ZM514.596 59.1294L515.569 58.3443L513.346 55.5909V59.1294H514.596ZM514.596 79.0494V80.2994H515.846V79.0494H514.596ZM505.606 79.0494V21.4494H503.106V79.0494H505.606ZM504.356 22.6994H514.596V20.1994H504.356V22.6994ZM513.346 21.4494V55.4494H515.846V21.4494H513.346ZM515.537 56.2729L529.617 40.1929L527.736 38.546L513.656 54.626L515.537 56.2729ZM528.676 40.6194H540.836V38.1194H528.676V40.6194ZM539.906 38.5341L523.666 56.6141L525.526 58.2847L541.766 40.2047L539.906 38.5341ZM523.655 58.2721L542.535 79.8721L544.417 78.2268L525.537 56.6268L523.655 58.2721ZM543.476 77.7994H530.676V80.2994H543.476V77.7994ZM531.649 78.2643L515.569 58.3443L513.624 59.9146L529.704 79.8346L531.649 78.2643ZM513.346 59.1294V79.0494H515.846V59.1294H513.346ZM514.596 77.7994H504.356V80.2994H514.596V77.7994Z" fill="#6B21A8"/>
</svg>
